M48
; DRILL file {KiCad 9.0.3} date 2025-12-16T11:32:47+0100
; FORMAT={-:-/ absolute / metric / decimal}
; #@! TF.CreationDate,2025-12-16T11:32:47+01:00
; #@! TF.GenerationSoftware,Kicad,Pcbnew,9.0.3
; #@! TF.FileFunction,MixedPlating,1,2
FMAT,2
METRIC
; #@! TA.AperFunction,Plated,PTH,ViaDrill
T1C0.300
; #@! TA.AperFunction,Plated,PTH,ComponentDrill
T2C0.800
; #@! TA.AperFunction,Plated,PTH,ComponentDrill
T3C0.900
; #@! TA.AperFunction,Plated,PTH,ComponentDrill
T4C1.100
; #@! TA.AperFunction,Plated,PTH,ComponentDrill
T5C1.200
; #@! TA.AperFunction,Plated,PTH,ComponentDrill
T6C1.400
; #@! TA.AperFunction,Plated,PTH,ComponentDrill
T7C1.500
; #@! TA.AperFunction,NonPlated,NPTH,ComponentDrill
T8C5.500
%
G90
G05
T1
X127.25Y-92.0
X129.25Y-99.25
X132.25Y-75.25
X135.575Y-91.575
X136.25Y-74.25
X137.0Y-67.0
X139.0Y-62.75
X141.625Y-94.375
X141.75Y-92.25
X142.0Y-86.69
X143.0Y-91.5
X148.25Y-77.5
X149.0Y-98.25
X150.5Y-83.0
X151.25Y-88.0
X157.75Y-88.5
X158.25Y-91.0
X158.875Y-77.625
X159.5Y-79.25
X161.5Y-78.299
X165.0Y-86.0
X166.25Y-82.75
X169.75Y-79.75
X172.5Y-86.5
X173.0Y-90.0
X173.25Y-83.75
X180.5Y-85.25
X184.25Y-78.75
X184.31Y-101.94
X187.25Y-91.0
X187.5Y-82.25
X193.5Y-93.75
X196.5Y-91.75
X196.75Y-97.0
X197.25Y-94.25
X202.25Y-89.75
X203.47Y-97.75
T2
X118.19Y-97.69
X118.19Y-100.23
X118.19Y-102.77
X118.19Y-105.31
X125.81Y-97.69
X125.81Y-100.23
X125.81Y-102.77
X125.81Y-105.31
X128.5Y-61.5
X128.5Y-63.5
X133.0Y-90.0
X133.0Y-92.0
X133.0Y-94.0
X134.195Y-62.19
X134.195Y-64.73
X134.195Y-67.27
X134.195Y-69.81
X141.815Y-62.19
X141.815Y-64.73
X141.815Y-67.27
X141.815Y-69.81
X146.19Y-81.61
X146.19Y-84.15
X146.19Y-86.69
X146.19Y-89.23
X146.19Y-91.77
X146.19Y-94.31
X146.19Y-96.85
X146.19Y-99.39
X147.0Y-60.5
X147.0Y-62.5
X153.81Y-81.61
X153.81Y-84.15
X153.81Y-86.69
X153.81Y-89.23
X153.81Y-91.77
X153.81Y-94.31
X153.81Y-96.85
X153.81Y-99.39
X161.0Y-55.0
X161.0Y-65.16
X162.0Y-81.8
X162.0Y-84.34
X162.0Y-86.88
X162.0Y-89.42
X162.0Y-91.96
X162.0Y-94.5
X162.0Y-97.04
X162.0Y-99.58
X168.0Y-54.92
X168.0Y-65.08
X169.62Y-81.8
X169.62Y-84.34
X169.62Y-86.88
X169.62Y-89.42
X169.62Y-91.96
X169.62Y-94.5
X169.62Y-97.04
X169.62Y-99.58
X175.0Y-54.92
X175.0Y-65.08
X176.69Y-81.61
X176.69Y-84.15
X176.69Y-86.69
X176.69Y-89.23
X176.69Y-91.77
X176.69Y-94.31
X176.69Y-96.85
X176.69Y-99.39
X183.0Y-54.92
X183.0Y-65.08
X184.31Y-81.61
X184.31Y-84.15
X184.31Y-86.69
X184.31Y-89.23
X184.31Y-91.77
X184.31Y-94.31
X184.31Y-96.85
X184.31Y-99.39
X199.782Y-88.983
X199.782Y-91.522
X199.782Y-94.062
X199.782Y-96.602
X199.782Y-99.142
X204.862Y-88.983
X204.862Y-91.522
X204.862Y-94.062
X204.862Y-96.602
X204.862Y-99.142
T3
X159.0Y-71.0
X159.0Y-73.54
X167.75Y-70.725
X167.75Y-73.265
X175.75Y-70.975
X175.75Y-73.515
X183.0Y-71.0
X183.0Y-73.54
T4
X129.65Y-54.5
X142.35Y-54.5
X157.25Y-117.75
X157.25Y-122.25
X163.75Y-117.75
X163.75Y-122.25
T5
X147.0Y-70.0
X147.0Y-73.0
T6
X121.5Y-75.5
X121.5Y-80.5
T7
X133.0Y-87.9
X133.0Y-96.1
T8
X120.0Y-60.0
X120.0Y-120.0
X200.0Y-60.0
X200.0Y-120.0
M30
