%TF.GenerationSoftware,KiCad,Pcbnew,9.0.3*%
%TF.CreationDate,2025-12-16T11:33:00+01:00*%
%TF.ProjectId,PTP_jakov_ozbolt_project-1,5054505f-6a61-46b6-9f76-5f6f7a626f6c,rev?*%
%TF.SameCoordinates,Original*%
%TF.FileFunction,Soldermask,Top*%
%TF.FilePolarity,Negative*%
%FSLAX46Y46*%
G04 Gerber Fmt 4.6, Leading zero omitted, Abs format (unit mm)*
G04 Created by KiCad (PCBNEW 9.0.3) date 2025-12-16 11:33:00*
%MOMM*%
%LPD*%
G01*
G04 APERTURE LIST*
G04 Aperture macros list*
%AMRoundRect*
0 Rectangle with rounded corners*
0 $1 Rounding radius*
0 $2 $3 $4 $5 $6 $7 $8 $9 X,Y pos of 4 corners*
0 Add a 4 corners polygon primitive as box body*
4,1,4,$2,$3,$4,$5,$6,$7,$8,$9,$2,$3,0*
0 Add four circle primitives for the rounded corners*
1,1,$1+$1,$2,$3*
1,1,$1+$1,$4,$5*
1,1,$1+$1,$6,$7*
1,1,$1+$1,$8,$9*
0 Add four rect primitives between the rounded corners*
20,1,$1+$1,$2,$3,$4,$5,0*
20,1,$1+$1,$4,$5,$6,$7,0*
20,1,$1+$1,$6,$7,$8,$9,0*
20,1,$1+$1,$8,$9,$2,$3,0*%
G04 Aperture macros list end*
%ADD10C,2.400000*%
%ADD11RoundRect,0.249999X-0.850001X-0.850001X0.850001X-0.850001X0.850001X0.850001X-0.850001X0.850001X0*%
%ADD12C,2.200000*%
%ADD13RoundRect,0.150000X-0.512500X-0.150000X0.512500X-0.150000X0.512500X0.150000X-0.512500X0.150000X0*%
%ADD14RoundRect,0.250000X-0.400000X-0.625000X0.400000X-0.625000X0.400000X0.625000X-0.400000X0.625000X0*%
%ADD15RoundRect,0.250000X-0.950000X-0.550000X0.950000X-0.550000X0.950000X0.550000X-0.950000X0.550000X0*%
%ADD16O,2.400000X1.600000*%
%ADD17RoundRect,0.250000X0.625000X-0.400000X0.625000X0.400000X-0.625000X0.400000X-0.625000X-0.400000X0*%
%ADD18O,3.500000X2.200000*%
%ADD19R,2.500000X1.500000*%
%ADD20O,2.500000X1.500000*%
%ADD21R,1.600000X1.600000*%
%ADD22C,1.600000*%
%ADD23RoundRect,0.250000X-0.550000X-0.550000X0.550000X-0.550000X0.550000X0.550000X-0.550000X0.550000X0*%
%ADD24C,2.000000*%
%ADD25R,1.800000X1.800000*%
%ADD26C,1.800000*%
%ADD27RoundRect,0.250000X-0.650000X0.412500X-0.650000X-0.412500X0.650000X-0.412500X0.650000X0.412500X0*%
%ADD28RoundRect,0.250000X0.650000X-0.412500X0.650000X0.412500X-0.650000X0.412500X-0.650000X-0.412500X0*%
%ADD29C,5.500000*%
%ADD30RoundRect,0.250000X-0.412500X-0.650000X0.412500X-0.650000X0.412500X0.650000X-0.412500X0.650000X0*%
%ADD31RoundRect,0.250000X0.400000X0.625000X-0.400000X0.625000X-0.400000X-0.625000X0.400000X-0.625000X0*%
%ADD32RoundRect,0.250000X-0.550000X0.550000X-0.550000X-0.550000X0.550000X-0.550000X0.550000X0.550000X0*%
%ADD33RoundRect,0.250001X1.149999X-1.149999X1.149999X1.149999X-1.149999X1.149999X-1.149999X-1.149999X0*%
%ADD34C,2.800000*%
G04 APERTURE END LIST*
D10*
%TO.C,L1*%
X147000000Y-70000000D03*
X147000000Y-73000000D03*
%TD*%
D11*
%TO.C,D4*%
X129650000Y-54500000D03*
D12*
X142350000Y-54500000D03*
%TD*%
D13*
%TO.C,U6*%
X138250000Y-91500000D03*
X138250000Y-92450000D03*
X138250000Y-93400000D03*
X140525000Y-93400000D03*
X140525000Y-92450000D03*
X140525000Y-91500000D03*
%TD*%
D14*
%TO.C,R5*%
X189400000Y-96000000D03*
X192500000Y-96000000D03*
%TD*%
D15*
%TO.C,U1*%
X118190000Y-97690000D03*
D16*
X118190000Y-100230000D03*
X118190000Y-102770000D03*
X118190000Y-105310000D03*
X125810000Y-105310000D03*
X125810000Y-102770000D03*
X125810000Y-100230000D03*
X125810000Y-97690000D03*
%TD*%
D17*
%TO.C,R19*%
X114000000Y-99550000D03*
X114000000Y-96450000D03*
%TD*%
%TO.C,R7*%
X156950000Y-111050000D03*
X156950000Y-107950000D03*
%TD*%
D18*
%TO.C,SW2*%
X133000000Y-96100000D03*
X133000000Y-87900000D03*
D19*
X133000000Y-94000000D03*
D20*
X133000000Y-92000000D03*
X133000000Y-90000000D03*
%TD*%
D15*
%TO.C,U2*%
X146190000Y-81610000D03*
D16*
X146190000Y-84150000D03*
X146190000Y-86690000D03*
X146190000Y-89230000D03*
X146190000Y-91770000D03*
X146190000Y-94310000D03*
X146190000Y-96850000D03*
X146190000Y-99390000D03*
X153810000Y-99390000D03*
X153810000Y-96850000D03*
X153810000Y-94310000D03*
X153810000Y-91770000D03*
X153810000Y-89230000D03*
X153810000Y-86690000D03*
X153810000Y-84150000D03*
X153810000Y-81610000D03*
%TD*%
D21*
%TO.C,U5*%
X199782500Y-88982500D03*
D22*
X199782500Y-91522500D03*
X199782500Y-94062500D03*
X199782500Y-96602500D03*
X199782500Y-99142500D03*
X204862500Y-99142500D03*
X204862500Y-96602500D03*
X204862500Y-94062500D03*
X204862500Y-91522500D03*
X204862500Y-88982500D03*
%TD*%
D14*
%TO.C,R16*%
X189450000Y-92000000D03*
X192550000Y-92000000D03*
%TD*%
D17*
%TO.C,R20*%
X114250000Y-106300000D03*
X114250000Y-103200000D03*
%TD*%
D22*
%TO.C,R4*%
X161000000Y-65160000D03*
X161000000Y-55000000D03*
%TD*%
D23*
%TO.C,U7*%
X134195000Y-62190000D03*
D22*
X134195000Y-64730000D03*
X134195000Y-67270000D03*
X134195000Y-69810000D03*
X141815000Y-69810000D03*
X141815000Y-67270000D03*
X141815000Y-64730000D03*
X141815000Y-62190000D03*
%TD*%
%TO.C,R3*%
X168000000Y-65080000D03*
X168000000Y-54920000D03*
%TD*%
D14*
%TO.C,R17*%
X189500000Y-85000000D03*
X192600000Y-85000000D03*
%TD*%
D24*
%TO.C,SW1*%
X157250000Y-117750000D03*
X163750000Y-117750000D03*
X157250000Y-122250000D03*
X163750000Y-122250000D03*
%TD*%
D14*
%TO.C,R14*%
X189450000Y-107000000D03*
X192550000Y-107000000D03*
%TD*%
D17*
%TO.C,R11*%
X170000000Y-111000000D03*
X170000000Y-107900000D03*
%TD*%
D25*
%TO.C,D3*%
X167750000Y-70725000D03*
D26*
X167750000Y-73265000D03*
%TD*%
D25*
%TO.C,D2*%
X175750000Y-70975000D03*
D26*
X175750000Y-73515000D03*
%TD*%
D15*
%TO.C,U3*%
X162000000Y-81800000D03*
D16*
X162000000Y-84340000D03*
X162000000Y-86880000D03*
X162000000Y-89420000D03*
X162000000Y-91960000D03*
X162000000Y-94500000D03*
X162000000Y-97040000D03*
X162000000Y-99580000D03*
X169620000Y-99580000D03*
X169620000Y-97040000D03*
X169620000Y-94500000D03*
X169620000Y-91960000D03*
X169620000Y-89420000D03*
X169620000Y-86880000D03*
X169620000Y-84340000D03*
X169620000Y-81800000D03*
%TD*%
D27*
%TO.C,C5*%
X131000000Y-101500000D03*
X131000000Y-104625000D03*
%TD*%
D28*
%TO.C,C3*%
X148000000Y-111125000D03*
X148000000Y-108000000D03*
%TD*%
D14*
%TO.C,R8*%
X189450000Y-103000000D03*
X192550000Y-103000000D03*
%TD*%
D29*
%TO.C,H3*%
X120000000Y-120000000D03*
%TD*%
D17*
%TO.C,R13*%
X152500000Y-111050000D03*
X152500000Y-107950000D03*
%TD*%
D22*
%TO.C,R2*%
X175000000Y-65080000D03*
X175000000Y-54920000D03*
%TD*%
D29*
%TO.C,H1*%
X120000000Y-60000000D03*
%TD*%
D30*
%TO.C,C4*%
X120937500Y-110000000D03*
X124062500Y-110000000D03*
%TD*%
D15*
%TO.C,U4*%
X176690000Y-81610000D03*
D16*
X176690000Y-84150000D03*
X176690000Y-86690000D03*
X176690000Y-89230000D03*
X176690000Y-91770000D03*
X176690000Y-94310000D03*
X176690000Y-96850000D03*
X176690000Y-99390000D03*
X184310000Y-99390000D03*
X184310000Y-96850000D03*
X184310000Y-94310000D03*
X184310000Y-91770000D03*
X184310000Y-89230000D03*
X184310000Y-86690000D03*
X184310000Y-84150000D03*
X184310000Y-81610000D03*
%TD*%
D29*
%TO.C,H2*%
X200000000Y-60000000D03*
%TD*%
D17*
%TO.C,R9*%
X161200000Y-111050000D03*
X161200000Y-107950000D03*
%TD*%
D25*
%TO.C,D1*%
X183000000Y-71000000D03*
D26*
X183000000Y-73540000D03*
%TD*%
D14*
%TO.C,R18*%
X189450000Y-88500000D03*
X192550000Y-88500000D03*
%TD*%
D31*
%TO.C,R15*%
X192550000Y-81500000D03*
X189450000Y-81500000D03*
%TD*%
D22*
%TO.C,R1*%
X183000000Y-65080000D03*
X183000000Y-54920000D03*
%TD*%
D32*
%TO.C,C1*%
X128500000Y-61500000D03*
D22*
X128500000Y-63500000D03*
%TD*%
D17*
%TO.C,R10*%
X165500000Y-111050000D03*
X165500000Y-107950000D03*
%TD*%
D32*
%TO.C,C2*%
X147000000Y-60500000D03*
D22*
X147000000Y-62500000D03*
%TD*%
D25*
%TO.C,D5*%
X159000000Y-71000000D03*
D26*
X159000000Y-73540000D03*
%TD*%
D17*
%TO.C,R12*%
X174000000Y-111000000D03*
X174000000Y-107900000D03*
%TD*%
D33*
%TO.C,J1*%
X121500000Y-80500000D03*
D34*
X121500000Y-75500000D03*
%TD*%
D29*
%TO.C,H4*%
X200000000Y-120000000D03*
%TD*%
D14*
%TO.C,R6*%
X189400000Y-99500000D03*
X192500000Y-99500000D03*
%TD*%
M02*
