%TF.GenerationSoftware,KiCad,Pcbnew,9.0.3*%
%TF.CreationDate,2025-12-16T11:33:00+01:00*%
%TF.ProjectId,PTP_jakov_ozbolt_project-1,5054505f-6a61-46b6-9f76-5f6f7a626f6c,rev?*%
%TF.SameCoordinates,Original*%
%TF.FileFunction,Legend,Top*%
%TF.FilePolarity,Positive*%
%FSLAX46Y46*%
G04 Gerber Fmt 4.6, Leading zero omitted, Abs format (unit mm)*
G04 Created by KiCad (PCBNEW 9.0.3) date 2025-12-16 11:33:00*
%MOMM*%
%LPD*%
G01*
G04 APERTURE LIST*
%ADD10C,0.300000*%
%ADD11C,0.150000*%
%ADD12C,0.120000*%
G04 APERTURE END LIST*
D10*
X126423558Y-123269750D02*
X126423558Y-121269750D01*
X126423558Y-121269750D02*
X127185463Y-121269750D01*
X127185463Y-121269750D02*
X127375939Y-121364988D01*
X127375939Y-121364988D02*
X127471177Y-121460226D01*
X127471177Y-121460226D02*
X127566415Y-121650702D01*
X127566415Y-121650702D02*
X127566415Y-121936416D01*
X127566415Y-121936416D02*
X127471177Y-122126892D01*
X127471177Y-122126892D02*
X127375939Y-122222131D01*
X127375939Y-122222131D02*
X127185463Y-122317369D01*
X127185463Y-122317369D02*
X126423558Y-122317369D01*
X128137844Y-121269750D02*
X129280701Y-121269750D01*
X128709272Y-123269750D02*
X128709272Y-121269750D01*
X129947368Y-123269750D02*
X129947368Y-121269750D01*
X129947368Y-121269750D02*
X130709273Y-121269750D01*
X130709273Y-121269750D02*
X130899749Y-121364988D01*
X130899749Y-121364988D02*
X130994987Y-121460226D01*
X130994987Y-121460226D02*
X131090225Y-121650702D01*
X131090225Y-121650702D02*
X131090225Y-121936416D01*
X131090225Y-121936416D02*
X130994987Y-122126892D01*
X130994987Y-122126892D02*
X130899749Y-122222131D01*
X130899749Y-122222131D02*
X130709273Y-122317369D01*
X130709273Y-122317369D02*
X129947368Y-122317369D01*
X133471178Y-122507845D02*
X134994988Y-122507845D01*
X138137845Y-122222131D02*
X138423559Y-122317369D01*
X138423559Y-122317369D02*
X138518797Y-122412607D01*
X138518797Y-122412607D02*
X138614035Y-122603083D01*
X138614035Y-122603083D02*
X138614035Y-122888797D01*
X138614035Y-122888797D02*
X138518797Y-123079273D01*
X138518797Y-123079273D02*
X138423559Y-123174512D01*
X138423559Y-123174512D02*
X138233083Y-123269750D01*
X138233083Y-123269750D02*
X137471178Y-123269750D01*
X137471178Y-123269750D02*
X137471178Y-121269750D01*
X137471178Y-121269750D02*
X138137845Y-121269750D01*
X138137845Y-121269750D02*
X138328321Y-121364988D01*
X138328321Y-121364988D02*
X138423559Y-121460226D01*
X138423559Y-121460226D02*
X138518797Y-121650702D01*
X138518797Y-121650702D02*
X138518797Y-121841178D01*
X138518797Y-121841178D02*
X138423559Y-122031654D01*
X138423559Y-122031654D02*
X138328321Y-122126892D01*
X138328321Y-122126892D02*
X138137845Y-122222131D01*
X138137845Y-122222131D02*
X137471178Y-122222131D01*
X140614035Y-123079273D02*
X140518797Y-123174512D01*
X140518797Y-123174512D02*
X140233083Y-123269750D01*
X140233083Y-123269750D02*
X140042607Y-123269750D01*
X140042607Y-123269750D02*
X139756892Y-123174512D01*
X139756892Y-123174512D02*
X139566416Y-122984035D01*
X139566416Y-122984035D02*
X139471178Y-122793559D01*
X139471178Y-122793559D02*
X139375940Y-122412607D01*
X139375940Y-122412607D02*
X139375940Y-122126892D01*
X139375940Y-122126892D02*
X139471178Y-121745940D01*
X139471178Y-121745940D02*
X139566416Y-121555464D01*
X139566416Y-121555464D02*
X139756892Y-121364988D01*
X139756892Y-121364988D02*
X140042607Y-121269750D01*
X140042607Y-121269750D02*
X140233083Y-121269750D01*
X140233083Y-121269750D02*
X140518797Y-121364988D01*
X140518797Y-121364988D02*
X140614035Y-121460226D01*
X141471178Y-123269750D02*
X141471178Y-121269750D01*
X141471178Y-121269750D02*
X141947368Y-121269750D01*
X141947368Y-121269750D02*
X142233083Y-121364988D01*
X142233083Y-121364988D02*
X142423559Y-121555464D01*
X142423559Y-121555464D02*
X142518797Y-121745940D01*
X142518797Y-121745940D02*
X142614035Y-122126892D01*
X142614035Y-122126892D02*
X142614035Y-122412607D01*
X142614035Y-122412607D02*
X142518797Y-122793559D01*
X142518797Y-122793559D02*
X142423559Y-122984035D01*
X142423559Y-122984035D02*
X142233083Y-123174512D01*
X142233083Y-123174512D02*
X141947368Y-123269750D01*
X141947368Y-123269750D02*
X141471178Y-123269750D01*
X145852131Y-123174512D02*
X145661655Y-123269750D01*
X145661655Y-123269750D02*
X145280702Y-123269750D01*
X145280702Y-123269750D02*
X145090226Y-123174512D01*
X145090226Y-123174512D02*
X144994988Y-123079273D01*
X144994988Y-123079273D02*
X144899750Y-122888797D01*
X144899750Y-122888797D02*
X144899750Y-122317369D01*
X144899750Y-122317369D02*
X144994988Y-122126892D01*
X144994988Y-122126892D02*
X145090226Y-122031654D01*
X145090226Y-122031654D02*
X145280702Y-121936416D01*
X145280702Y-121936416D02*
X145661655Y-121936416D01*
X145661655Y-121936416D02*
X145852131Y-122031654D01*
X146994988Y-123269750D02*
X146804512Y-123174512D01*
X146804512Y-123174512D02*
X146709274Y-123079273D01*
X146709274Y-123079273D02*
X146614036Y-122888797D01*
X146614036Y-122888797D02*
X146614036Y-122317369D01*
X146614036Y-122317369D02*
X146709274Y-122126892D01*
X146709274Y-122126892D02*
X146804512Y-122031654D01*
X146804512Y-122031654D02*
X146994988Y-121936416D01*
X146994988Y-121936416D02*
X147280703Y-121936416D01*
X147280703Y-121936416D02*
X147471179Y-122031654D01*
X147471179Y-122031654D02*
X147566417Y-122126892D01*
X147566417Y-122126892D02*
X147661655Y-122317369D01*
X147661655Y-122317369D02*
X147661655Y-122888797D01*
X147661655Y-122888797D02*
X147566417Y-123079273D01*
X147566417Y-123079273D02*
X147471179Y-123174512D01*
X147471179Y-123174512D02*
X147280703Y-123269750D01*
X147280703Y-123269750D02*
X146994988Y-123269750D01*
X149375941Y-121936416D02*
X149375941Y-123269750D01*
X148518798Y-121936416D02*
X148518798Y-122984035D01*
X148518798Y-122984035D02*
X148614036Y-123174512D01*
X148614036Y-123174512D02*
X148804512Y-123269750D01*
X148804512Y-123269750D02*
X149090227Y-123269750D01*
X149090227Y-123269750D02*
X149280703Y-123174512D01*
X149280703Y-123174512D02*
X149375941Y-123079273D01*
X150328322Y-121936416D02*
X150328322Y-123269750D01*
X150328322Y-122126892D02*
X150423560Y-122031654D01*
X150423560Y-122031654D02*
X150614036Y-121936416D01*
X150614036Y-121936416D02*
X150899751Y-121936416D01*
X150899751Y-121936416D02*
X151090227Y-122031654D01*
X151090227Y-122031654D02*
X151185465Y-122222131D01*
X151185465Y-122222131D02*
X151185465Y-123269750D01*
X151852132Y-121936416D02*
X152614036Y-121936416D01*
X152137846Y-121269750D02*
X152137846Y-122984035D01*
X152137846Y-122984035D02*
X152233084Y-123174512D01*
X152233084Y-123174512D02*
X152423560Y-123269750D01*
X152423560Y-123269750D02*
X152614036Y-123269750D01*
X154042608Y-123174512D02*
X153852132Y-123269750D01*
X153852132Y-123269750D02*
X153471179Y-123269750D01*
X153471179Y-123269750D02*
X153280703Y-123174512D01*
X153280703Y-123174512D02*
X153185465Y-122984035D01*
X153185465Y-122984035D02*
X153185465Y-122222131D01*
X153185465Y-122222131D02*
X153280703Y-122031654D01*
X153280703Y-122031654D02*
X153471179Y-121936416D01*
X153471179Y-121936416D02*
X153852132Y-121936416D01*
X153852132Y-121936416D02*
X154042608Y-122031654D01*
X154042608Y-122031654D02*
X154137846Y-122222131D01*
X154137846Y-122222131D02*
X154137846Y-122412607D01*
X154137846Y-122412607D02*
X153185465Y-122603083D01*
X154994989Y-123269750D02*
X154994989Y-121936416D01*
X154994989Y-122317369D02*
X155090227Y-122126892D01*
X155090227Y-122126892D02*
X155185465Y-122031654D01*
X155185465Y-122031654D02*
X155375941Y-121936416D01*
X155375941Y-121936416D02*
X155566418Y-121936416D01*
X126994987Y-124489638D02*
X126994987Y-125918209D01*
X126994987Y-125918209D02*
X126899748Y-126203923D01*
X126899748Y-126203923D02*
X126709272Y-126394400D01*
X126709272Y-126394400D02*
X126423558Y-126489638D01*
X126423558Y-126489638D02*
X126233082Y-126489638D01*
X128804511Y-126489638D02*
X128804511Y-125442019D01*
X128804511Y-125442019D02*
X128709273Y-125251542D01*
X128709273Y-125251542D02*
X128518797Y-125156304D01*
X128518797Y-125156304D02*
X128137844Y-125156304D01*
X128137844Y-125156304D02*
X127947368Y-125251542D01*
X128804511Y-126394400D02*
X128614035Y-126489638D01*
X128614035Y-126489638D02*
X128137844Y-126489638D01*
X128137844Y-126489638D02*
X127947368Y-126394400D01*
X127947368Y-126394400D02*
X127852130Y-126203923D01*
X127852130Y-126203923D02*
X127852130Y-126013447D01*
X127852130Y-126013447D02*
X127947368Y-125822971D01*
X127947368Y-125822971D02*
X128137844Y-125727733D01*
X128137844Y-125727733D02*
X128614035Y-125727733D01*
X128614035Y-125727733D02*
X128804511Y-125632495D01*
X129756892Y-126489638D02*
X129756892Y-124489638D01*
X129947368Y-125727733D02*
X130518797Y-126489638D01*
X130518797Y-125156304D02*
X129756892Y-125918209D01*
X131661654Y-126489638D02*
X131471178Y-126394400D01*
X131471178Y-126394400D02*
X131375940Y-126299161D01*
X131375940Y-126299161D02*
X131280702Y-126108685D01*
X131280702Y-126108685D02*
X131280702Y-125537257D01*
X131280702Y-125537257D02*
X131375940Y-125346780D01*
X131375940Y-125346780D02*
X131471178Y-125251542D01*
X131471178Y-125251542D02*
X131661654Y-125156304D01*
X131661654Y-125156304D02*
X131947369Y-125156304D01*
X131947369Y-125156304D02*
X132137845Y-125251542D01*
X132137845Y-125251542D02*
X132233083Y-125346780D01*
X132233083Y-125346780D02*
X132328321Y-125537257D01*
X132328321Y-125537257D02*
X132328321Y-126108685D01*
X132328321Y-126108685D02*
X132233083Y-126299161D01*
X132233083Y-126299161D02*
X132137845Y-126394400D01*
X132137845Y-126394400D02*
X131947369Y-126489638D01*
X131947369Y-126489638D02*
X131661654Y-126489638D01*
X132994988Y-125156304D02*
X133471178Y-126489638D01*
X133471178Y-126489638D02*
X133947369Y-125156304D01*
X136614036Y-124489638D02*
X136994989Y-124489638D01*
X136994989Y-124489638D02*
X137185465Y-124584876D01*
X137185465Y-124584876D02*
X137375941Y-124775352D01*
X137375941Y-124775352D02*
X137471179Y-125156304D01*
X137471179Y-125156304D02*
X137471179Y-125822971D01*
X137471179Y-125822971D02*
X137375941Y-126203923D01*
X137375941Y-126203923D02*
X137185465Y-126394400D01*
X137185465Y-126394400D02*
X136994989Y-126489638D01*
X136994989Y-126489638D02*
X136614036Y-126489638D01*
X136614036Y-126489638D02*
X136423560Y-126394400D01*
X136423560Y-126394400D02*
X136233084Y-126203923D01*
X136233084Y-126203923D02*
X136137846Y-125822971D01*
X136137846Y-125822971D02*
X136137846Y-125156304D01*
X136137846Y-125156304D02*
X136233084Y-124775352D01*
X136233084Y-124775352D02*
X136423560Y-124584876D01*
X136423560Y-124584876D02*
X136614036Y-124489638D01*
X138137846Y-125156304D02*
X139185465Y-125156304D01*
X139185465Y-125156304D02*
X138137846Y-126489638D01*
X138137846Y-126489638D02*
X139185465Y-126489638D01*
X138328322Y-124394400D02*
X138709274Y-124680114D01*
X138709274Y-124680114D02*
X139090227Y-124394400D01*
X139947370Y-126489638D02*
X139947370Y-124489638D01*
X139947370Y-125251542D02*
X140137846Y-125156304D01*
X140137846Y-125156304D02*
X140518799Y-125156304D01*
X140518799Y-125156304D02*
X140709275Y-125251542D01*
X140709275Y-125251542D02*
X140804513Y-125346780D01*
X140804513Y-125346780D02*
X140899751Y-125537257D01*
X140899751Y-125537257D02*
X140899751Y-126108685D01*
X140899751Y-126108685D02*
X140804513Y-126299161D01*
X140804513Y-126299161D02*
X140709275Y-126394400D01*
X140709275Y-126394400D02*
X140518799Y-126489638D01*
X140518799Y-126489638D02*
X140137846Y-126489638D01*
X140137846Y-126489638D02*
X139947370Y-126394400D01*
X142042608Y-126489638D02*
X141852132Y-126394400D01*
X141852132Y-126394400D02*
X141756894Y-126299161D01*
X141756894Y-126299161D02*
X141661656Y-126108685D01*
X141661656Y-126108685D02*
X141661656Y-125537257D01*
X141661656Y-125537257D02*
X141756894Y-125346780D01*
X141756894Y-125346780D02*
X141852132Y-125251542D01*
X141852132Y-125251542D02*
X142042608Y-125156304D01*
X142042608Y-125156304D02*
X142328323Y-125156304D01*
X142328323Y-125156304D02*
X142518799Y-125251542D01*
X142518799Y-125251542D02*
X142614037Y-125346780D01*
X142614037Y-125346780D02*
X142709275Y-125537257D01*
X142709275Y-125537257D02*
X142709275Y-126108685D01*
X142709275Y-126108685D02*
X142614037Y-126299161D01*
X142614037Y-126299161D02*
X142518799Y-126394400D01*
X142518799Y-126394400D02*
X142328323Y-126489638D01*
X142328323Y-126489638D02*
X142042608Y-126489638D01*
X143852132Y-126489638D02*
X143661656Y-126394400D01*
X143661656Y-126394400D02*
X143566418Y-126203923D01*
X143566418Y-126203923D02*
X143566418Y-124489638D01*
X144328323Y-125156304D02*
X145090227Y-125156304D01*
X144614037Y-124489638D02*
X144614037Y-126203923D01*
X144614037Y-126203923D02*
X144709275Y-126394400D01*
X144709275Y-126394400D02*
X144899751Y-126489638D01*
X144899751Y-126489638D02*
X145090227Y-126489638D01*
D11*
X152304819Y-71666666D02*
X152304819Y-72142856D01*
X152304819Y-72142856D02*
X151304819Y-72142856D01*
X152304819Y-70809523D02*
X152304819Y-71380951D01*
X152304819Y-71095237D02*
X151304819Y-71095237D01*
X151304819Y-71095237D02*
X151447676Y-71190475D01*
X151447676Y-71190475D02*
X151542914Y-71285713D01*
X151542914Y-71285713D02*
X151590533Y-71380951D01*
X135261905Y-52484819D02*
X135261905Y-51484819D01*
X135261905Y-51484819D02*
X135500000Y-51484819D01*
X135500000Y-51484819D02*
X135642857Y-51532438D01*
X135642857Y-51532438D02*
X135738095Y-51627676D01*
X135738095Y-51627676D02*
X135785714Y-51722914D01*
X135785714Y-51722914D02*
X135833333Y-51913390D01*
X135833333Y-51913390D02*
X135833333Y-52056247D01*
X135833333Y-52056247D02*
X135785714Y-52246723D01*
X135785714Y-52246723D02*
X135738095Y-52341961D01*
X135738095Y-52341961D02*
X135642857Y-52437200D01*
X135642857Y-52437200D02*
X135500000Y-52484819D01*
X135500000Y-52484819D02*
X135261905Y-52484819D01*
X136690476Y-51818152D02*
X136690476Y-52484819D01*
X136452381Y-51437200D02*
X136214286Y-52151485D01*
X136214286Y-52151485D02*
X136833333Y-52151485D01*
X129388095Y-52854819D02*
X129388095Y-51854819D01*
X129959523Y-52854819D02*
X129530952Y-52283390D01*
X129959523Y-51854819D02*
X129388095Y-52426247D01*
X138625595Y-89504819D02*
X138625595Y-90314342D01*
X138625595Y-90314342D02*
X138673214Y-90409580D01*
X138673214Y-90409580D02*
X138720833Y-90457200D01*
X138720833Y-90457200D02*
X138816071Y-90504819D01*
X138816071Y-90504819D02*
X139006547Y-90504819D01*
X139006547Y-90504819D02*
X139101785Y-90457200D01*
X139101785Y-90457200D02*
X139149404Y-90409580D01*
X139149404Y-90409580D02*
X139197023Y-90314342D01*
X139197023Y-90314342D02*
X139197023Y-89504819D01*
X140101785Y-89504819D02*
X139911309Y-89504819D01*
X139911309Y-89504819D02*
X139816071Y-89552438D01*
X139816071Y-89552438D02*
X139768452Y-89600057D01*
X139768452Y-89600057D02*
X139673214Y-89742914D01*
X139673214Y-89742914D02*
X139625595Y-89933390D01*
X139625595Y-89933390D02*
X139625595Y-90314342D01*
X139625595Y-90314342D02*
X139673214Y-90409580D01*
X139673214Y-90409580D02*
X139720833Y-90457200D01*
X139720833Y-90457200D02*
X139816071Y-90504819D01*
X139816071Y-90504819D02*
X140006547Y-90504819D01*
X140006547Y-90504819D02*
X140101785Y-90457200D01*
X140101785Y-90457200D02*
X140149404Y-90409580D01*
X140149404Y-90409580D02*
X140197023Y-90314342D01*
X140197023Y-90314342D02*
X140197023Y-90076247D01*
X140197023Y-90076247D02*
X140149404Y-89981009D01*
X140149404Y-89981009D02*
X140101785Y-89933390D01*
X140101785Y-89933390D02*
X140006547Y-89885771D01*
X140006547Y-89885771D02*
X139816071Y-89885771D01*
X139816071Y-89885771D02*
X139720833Y-89933390D01*
X139720833Y-89933390D02*
X139673214Y-89981009D01*
X139673214Y-89981009D02*
X139625595Y-90076247D01*
X190783333Y-94624819D02*
X190450000Y-94148628D01*
X190211905Y-94624819D02*
X190211905Y-93624819D01*
X190211905Y-93624819D02*
X190592857Y-93624819D01*
X190592857Y-93624819D02*
X190688095Y-93672438D01*
X190688095Y-93672438D02*
X190735714Y-93720057D01*
X190735714Y-93720057D02*
X190783333Y-93815295D01*
X190783333Y-93815295D02*
X190783333Y-93958152D01*
X190783333Y-93958152D02*
X190735714Y-94053390D01*
X190735714Y-94053390D02*
X190688095Y-94101009D01*
X190688095Y-94101009D02*
X190592857Y-94148628D01*
X190592857Y-94148628D02*
X190211905Y-94148628D01*
X191688095Y-93624819D02*
X191211905Y-93624819D01*
X191211905Y-93624819D02*
X191164286Y-94101009D01*
X191164286Y-94101009D02*
X191211905Y-94053390D01*
X191211905Y-94053390D02*
X191307143Y-94005771D01*
X191307143Y-94005771D02*
X191545238Y-94005771D01*
X191545238Y-94005771D02*
X191640476Y-94053390D01*
X191640476Y-94053390D02*
X191688095Y-94101009D01*
X191688095Y-94101009D02*
X191735714Y-94196247D01*
X191735714Y-94196247D02*
X191735714Y-94434342D01*
X191735714Y-94434342D02*
X191688095Y-94529580D01*
X191688095Y-94529580D02*
X191640476Y-94577200D01*
X191640476Y-94577200D02*
X191545238Y-94624819D01*
X191545238Y-94624819D02*
X191307143Y-94624819D01*
X191307143Y-94624819D02*
X191211905Y-94577200D01*
X191211905Y-94577200D02*
X191164286Y-94529580D01*
X121238095Y-94814819D02*
X121238095Y-95624342D01*
X121238095Y-95624342D02*
X121285714Y-95719580D01*
X121285714Y-95719580D02*
X121333333Y-95767200D01*
X121333333Y-95767200D02*
X121428571Y-95814819D01*
X121428571Y-95814819D02*
X121619047Y-95814819D01*
X121619047Y-95814819D02*
X121714285Y-95767200D01*
X121714285Y-95767200D02*
X121761904Y-95719580D01*
X121761904Y-95719580D02*
X121809523Y-95624342D01*
X121809523Y-95624342D02*
X121809523Y-94814819D01*
X122809523Y-95814819D02*
X122238095Y-95814819D01*
X122523809Y-95814819D02*
X122523809Y-94814819D01*
X122523809Y-94814819D02*
X122428571Y-94957676D01*
X122428571Y-94957676D02*
X122333333Y-95052914D01*
X122333333Y-95052914D02*
X122238095Y-95100533D01*
X112624819Y-98642857D02*
X112148628Y-98976190D01*
X112624819Y-99214285D02*
X111624819Y-99214285D01*
X111624819Y-99214285D02*
X111624819Y-98833333D01*
X111624819Y-98833333D02*
X111672438Y-98738095D01*
X111672438Y-98738095D02*
X111720057Y-98690476D01*
X111720057Y-98690476D02*
X111815295Y-98642857D01*
X111815295Y-98642857D02*
X111958152Y-98642857D01*
X111958152Y-98642857D02*
X112053390Y-98690476D01*
X112053390Y-98690476D02*
X112101009Y-98738095D01*
X112101009Y-98738095D02*
X112148628Y-98833333D01*
X112148628Y-98833333D02*
X112148628Y-99214285D01*
X112624819Y-97690476D02*
X112624819Y-98261904D01*
X112624819Y-97976190D02*
X111624819Y-97976190D01*
X111624819Y-97976190D02*
X111767676Y-98071428D01*
X111767676Y-98071428D02*
X111862914Y-98166666D01*
X111862914Y-98166666D02*
X111910533Y-98261904D01*
X112624819Y-97214285D02*
X112624819Y-97023809D01*
X112624819Y-97023809D02*
X112577200Y-96928571D01*
X112577200Y-96928571D02*
X112529580Y-96880952D01*
X112529580Y-96880952D02*
X112386723Y-96785714D01*
X112386723Y-96785714D02*
X112196247Y-96738095D01*
X112196247Y-96738095D02*
X111815295Y-96738095D01*
X111815295Y-96738095D02*
X111720057Y-96785714D01*
X111720057Y-96785714D02*
X111672438Y-96833333D01*
X111672438Y-96833333D02*
X111624819Y-96928571D01*
X111624819Y-96928571D02*
X111624819Y-97119047D01*
X111624819Y-97119047D02*
X111672438Y-97214285D01*
X111672438Y-97214285D02*
X111720057Y-97261904D01*
X111720057Y-97261904D02*
X111815295Y-97309523D01*
X111815295Y-97309523D02*
X112053390Y-97309523D01*
X112053390Y-97309523D02*
X112148628Y-97261904D01*
X112148628Y-97261904D02*
X112196247Y-97214285D01*
X112196247Y-97214285D02*
X112243866Y-97119047D01*
X112243866Y-97119047D02*
X112243866Y-96928571D01*
X112243866Y-96928571D02*
X112196247Y-96833333D01*
X112196247Y-96833333D02*
X112148628Y-96785714D01*
X112148628Y-96785714D02*
X112053390Y-96738095D01*
X155574819Y-109666666D02*
X155098628Y-109999999D01*
X155574819Y-110238094D02*
X154574819Y-110238094D01*
X154574819Y-110238094D02*
X154574819Y-109857142D01*
X154574819Y-109857142D02*
X154622438Y-109761904D01*
X154622438Y-109761904D02*
X154670057Y-109714285D01*
X154670057Y-109714285D02*
X154765295Y-109666666D01*
X154765295Y-109666666D02*
X154908152Y-109666666D01*
X154908152Y-109666666D02*
X155003390Y-109714285D01*
X155003390Y-109714285D02*
X155051009Y-109761904D01*
X155051009Y-109761904D02*
X155098628Y-109857142D01*
X155098628Y-109857142D02*
X155098628Y-110238094D01*
X154574819Y-109333332D02*
X154574819Y-108666666D01*
X154574819Y-108666666D02*
X155574819Y-109095237D01*
X130916667Y-85907200D02*
X131059524Y-85954819D01*
X131059524Y-85954819D02*
X131297619Y-85954819D01*
X131297619Y-85954819D02*
X131392857Y-85907200D01*
X131392857Y-85907200D02*
X131440476Y-85859580D01*
X131440476Y-85859580D02*
X131488095Y-85764342D01*
X131488095Y-85764342D02*
X131488095Y-85669104D01*
X131488095Y-85669104D02*
X131440476Y-85573866D01*
X131440476Y-85573866D02*
X131392857Y-85526247D01*
X131392857Y-85526247D02*
X131297619Y-85478628D01*
X131297619Y-85478628D02*
X131107143Y-85431009D01*
X131107143Y-85431009D02*
X131011905Y-85383390D01*
X131011905Y-85383390D02*
X130964286Y-85335771D01*
X130964286Y-85335771D02*
X130916667Y-85240533D01*
X130916667Y-85240533D02*
X130916667Y-85145295D01*
X130916667Y-85145295D02*
X130964286Y-85050057D01*
X130964286Y-85050057D02*
X131011905Y-85002438D01*
X131011905Y-85002438D02*
X131107143Y-84954819D01*
X131107143Y-84954819D02*
X131345238Y-84954819D01*
X131345238Y-84954819D02*
X131488095Y-85002438D01*
X131821429Y-84954819D02*
X132059524Y-85954819D01*
X132059524Y-85954819D02*
X132250000Y-85240533D01*
X132250000Y-85240533D02*
X132440476Y-85954819D01*
X132440476Y-85954819D02*
X132678572Y-84954819D01*
X133011905Y-85050057D02*
X133059524Y-85002438D01*
X133059524Y-85002438D02*
X133154762Y-84954819D01*
X133154762Y-84954819D02*
X133392857Y-84954819D01*
X133392857Y-84954819D02*
X133488095Y-85002438D01*
X133488095Y-85002438D02*
X133535714Y-85050057D01*
X133535714Y-85050057D02*
X133583333Y-85145295D01*
X133583333Y-85145295D02*
X133583333Y-85240533D01*
X133583333Y-85240533D02*
X133535714Y-85383390D01*
X133535714Y-85383390D02*
X132964286Y-85954819D01*
X132964286Y-85954819D02*
X133583333Y-85954819D01*
X149238095Y-78734819D02*
X149238095Y-79544342D01*
X149238095Y-79544342D02*
X149285714Y-79639580D01*
X149285714Y-79639580D02*
X149333333Y-79687200D01*
X149333333Y-79687200D02*
X149428571Y-79734819D01*
X149428571Y-79734819D02*
X149619047Y-79734819D01*
X149619047Y-79734819D02*
X149714285Y-79687200D01*
X149714285Y-79687200D02*
X149761904Y-79639580D01*
X149761904Y-79639580D02*
X149809523Y-79544342D01*
X149809523Y-79544342D02*
X149809523Y-78734819D01*
X150238095Y-78830057D02*
X150285714Y-78782438D01*
X150285714Y-78782438D02*
X150380952Y-78734819D01*
X150380952Y-78734819D02*
X150619047Y-78734819D01*
X150619047Y-78734819D02*
X150714285Y-78782438D01*
X150714285Y-78782438D02*
X150761904Y-78830057D01*
X150761904Y-78830057D02*
X150809523Y-78925295D01*
X150809523Y-78925295D02*
X150809523Y-79020533D01*
X150809523Y-79020533D02*
X150761904Y-79163390D01*
X150761904Y-79163390D02*
X150190476Y-79734819D01*
X150190476Y-79734819D02*
X150809523Y-79734819D01*
X201560595Y-86278319D02*
X201560595Y-87087842D01*
X201560595Y-87087842D02*
X201608214Y-87183080D01*
X201608214Y-87183080D02*
X201655833Y-87230700D01*
X201655833Y-87230700D02*
X201751071Y-87278319D01*
X201751071Y-87278319D02*
X201941547Y-87278319D01*
X201941547Y-87278319D02*
X202036785Y-87230700D01*
X202036785Y-87230700D02*
X202084404Y-87183080D01*
X202084404Y-87183080D02*
X202132023Y-87087842D01*
X202132023Y-87087842D02*
X202132023Y-86278319D01*
X203084404Y-86278319D02*
X202608214Y-86278319D01*
X202608214Y-86278319D02*
X202560595Y-86754509D01*
X202560595Y-86754509D02*
X202608214Y-86706890D01*
X202608214Y-86706890D02*
X202703452Y-86659271D01*
X202703452Y-86659271D02*
X202941547Y-86659271D01*
X202941547Y-86659271D02*
X203036785Y-86706890D01*
X203036785Y-86706890D02*
X203084404Y-86754509D01*
X203084404Y-86754509D02*
X203132023Y-86849747D01*
X203132023Y-86849747D02*
X203132023Y-87087842D01*
X203132023Y-87087842D02*
X203084404Y-87183080D01*
X203084404Y-87183080D02*
X203036785Y-87230700D01*
X203036785Y-87230700D02*
X202941547Y-87278319D01*
X202941547Y-87278319D02*
X202703452Y-87278319D01*
X202703452Y-87278319D02*
X202608214Y-87230700D01*
X202608214Y-87230700D02*
X202560595Y-87183080D01*
X194357142Y-90704819D02*
X194023809Y-90228628D01*
X193785714Y-90704819D02*
X193785714Y-89704819D01*
X193785714Y-89704819D02*
X194166666Y-89704819D01*
X194166666Y-89704819D02*
X194261904Y-89752438D01*
X194261904Y-89752438D02*
X194309523Y-89800057D01*
X194309523Y-89800057D02*
X194357142Y-89895295D01*
X194357142Y-89895295D02*
X194357142Y-90038152D01*
X194357142Y-90038152D02*
X194309523Y-90133390D01*
X194309523Y-90133390D02*
X194261904Y-90181009D01*
X194261904Y-90181009D02*
X194166666Y-90228628D01*
X194166666Y-90228628D02*
X193785714Y-90228628D01*
X195309523Y-90704819D02*
X194738095Y-90704819D01*
X195023809Y-90704819D02*
X195023809Y-89704819D01*
X195023809Y-89704819D02*
X194928571Y-89847676D01*
X194928571Y-89847676D02*
X194833333Y-89942914D01*
X194833333Y-89942914D02*
X194738095Y-89990533D01*
X196166666Y-89704819D02*
X195976190Y-89704819D01*
X195976190Y-89704819D02*
X195880952Y-89752438D01*
X195880952Y-89752438D02*
X195833333Y-89800057D01*
X195833333Y-89800057D02*
X195738095Y-89942914D01*
X195738095Y-89942914D02*
X195690476Y-90133390D01*
X195690476Y-90133390D02*
X195690476Y-90514342D01*
X195690476Y-90514342D02*
X195738095Y-90609580D01*
X195738095Y-90609580D02*
X195785714Y-90657200D01*
X195785714Y-90657200D02*
X195880952Y-90704819D01*
X195880952Y-90704819D02*
X196071428Y-90704819D01*
X196071428Y-90704819D02*
X196166666Y-90657200D01*
X196166666Y-90657200D02*
X196214285Y-90609580D01*
X196214285Y-90609580D02*
X196261904Y-90514342D01*
X196261904Y-90514342D02*
X196261904Y-90276247D01*
X196261904Y-90276247D02*
X196214285Y-90181009D01*
X196214285Y-90181009D02*
X196166666Y-90133390D01*
X196166666Y-90133390D02*
X196071428Y-90085771D01*
X196071428Y-90085771D02*
X195880952Y-90085771D01*
X195880952Y-90085771D02*
X195785714Y-90133390D01*
X195785714Y-90133390D02*
X195738095Y-90181009D01*
X195738095Y-90181009D02*
X195690476Y-90276247D01*
X112874819Y-105392857D02*
X112398628Y-105726190D01*
X112874819Y-105964285D02*
X111874819Y-105964285D01*
X111874819Y-105964285D02*
X111874819Y-105583333D01*
X111874819Y-105583333D02*
X111922438Y-105488095D01*
X111922438Y-105488095D02*
X111970057Y-105440476D01*
X111970057Y-105440476D02*
X112065295Y-105392857D01*
X112065295Y-105392857D02*
X112208152Y-105392857D01*
X112208152Y-105392857D02*
X112303390Y-105440476D01*
X112303390Y-105440476D02*
X112351009Y-105488095D01*
X112351009Y-105488095D02*
X112398628Y-105583333D01*
X112398628Y-105583333D02*
X112398628Y-105964285D01*
X111970057Y-105011904D02*
X111922438Y-104964285D01*
X111922438Y-104964285D02*
X111874819Y-104869047D01*
X111874819Y-104869047D02*
X111874819Y-104630952D01*
X111874819Y-104630952D02*
X111922438Y-104535714D01*
X111922438Y-104535714D02*
X111970057Y-104488095D01*
X111970057Y-104488095D02*
X112065295Y-104440476D01*
X112065295Y-104440476D02*
X112160533Y-104440476D01*
X112160533Y-104440476D02*
X112303390Y-104488095D01*
X112303390Y-104488095D02*
X112874819Y-105059523D01*
X112874819Y-105059523D02*
X112874819Y-104440476D01*
X111874819Y-103821428D02*
X111874819Y-103726190D01*
X111874819Y-103726190D02*
X111922438Y-103630952D01*
X111922438Y-103630952D02*
X111970057Y-103583333D01*
X111970057Y-103583333D02*
X112065295Y-103535714D01*
X112065295Y-103535714D02*
X112255771Y-103488095D01*
X112255771Y-103488095D02*
X112493866Y-103488095D01*
X112493866Y-103488095D02*
X112684342Y-103535714D01*
X112684342Y-103535714D02*
X112779580Y-103583333D01*
X112779580Y-103583333D02*
X112827200Y-103630952D01*
X112827200Y-103630952D02*
X112874819Y-103726190D01*
X112874819Y-103726190D02*
X112874819Y-103821428D01*
X112874819Y-103821428D02*
X112827200Y-103916666D01*
X112827200Y-103916666D02*
X112779580Y-103964285D01*
X112779580Y-103964285D02*
X112684342Y-104011904D01*
X112684342Y-104011904D02*
X112493866Y-104059523D01*
X112493866Y-104059523D02*
X112255771Y-104059523D01*
X112255771Y-104059523D02*
X112065295Y-104011904D01*
X112065295Y-104011904D02*
X111970057Y-103964285D01*
X111970057Y-103964285D02*
X111922438Y-103916666D01*
X111922438Y-103916666D02*
X111874819Y-103821428D01*
X159084819Y-60246666D02*
X158608628Y-60579999D01*
X159084819Y-60818094D02*
X158084819Y-60818094D01*
X158084819Y-60818094D02*
X158084819Y-60437142D01*
X158084819Y-60437142D02*
X158132438Y-60341904D01*
X158132438Y-60341904D02*
X158180057Y-60294285D01*
X158180057Y-60294285D02*
X158275295Y-60246666D01*
X158275295Y-60246666D02*
X158418152Y-60246666D01*
X158418152Y-60246666D02*
X158513390Y-60294285D01*
X158513390Y-60294285D02*
X158561009Y-60341904D01*
X158561009Y-60341904D02*
X158608628Y-60437142D01*
X158608628Y-60437142D02*
X158608628Y-60818094D01*
X158418152Y-59389523D02*
X159084819Y-59389523D01*
X158037200Y-59627618D02*
X158751485Y-59865713D01*
X158751485Y-59865713D02*
X158751485Y-59246666D01*
X137243095Y-59314819D02*
X137243095Y-60124342D01*
X137243095Y-60124342D02*
X137290714Y-60219580D01*
X137290714Y-60219580D02*
X137338333Y-60267200D01*
X137338333Y-60267200D02*
X137433571Y-60314819D01*
X137433571Y-60314819D02*
X137624047Y-60314819D01*
X137624047Y-60314819D02*
X137719285Y-60267200D01*
X137719285Y-60267200D02*
X137766904Y-60219580D01*
X137766904Y-60219580D02*
X137814523Y-60124342D01*
X137814523Y-60124342D02*
X137814523Y-59314819D01*
X138195476Y-59314819D02*
X138862142Y-59314819D01*
X138862142Y-59314819D02*
X138433571Y-60314819D01*
X166084819Y-60166666D02*
X165608628Y-60499999D01*
X166084819Y-60738094D02*
X165084819Y-60738094D01*
X165084819Y-60738094D02*
X165084819Y-60357142D01*
X165084819Y-60357142D02*
X165132438Y-60261904D01*
X165132438Y-60261904D02*
X165180057Y-60214285D01*
X165180057Y-60214285D02*
X165275295Y-60166666D01*
X165275295Y-60166666D02*
X165418152Y-60166666D01*
X165418152Y-60166666D02*
X165513390Y-60214285D01*
X165513390Y-60214285D02*
X165561009Y-60261904D01*
X165561009Y-60261904D02*
X165608628Y-60357142D01*
X165608628Y-60357142D02*
X165608628Y-60738094D01*
X165084819Y-59833332D02*
X165084819Y-59214285D01*
X165084819Y-59214285D02*
X165465771Y-59547618D01*
X165465771Y-59547618D02*
X165465771Y-59404761D01*
X165465771Y-59404761D02*
X165513390Y-59309523D01*
X165513390Y-59309523D02*
X165561009Y-59261904D01*
X165561009Y-59261904D02*
X165656247Y-59214285D01*
X165656247Y-59214285D02*
X165894342Y-59214285D01*
X165894342Y-59214285D02*
X165989580Y-59261904D01*
X165989580Y-59261904D02*
X166037200Y-59309523D01*
X166037200Y-59309523D02*
X166084819Y-59404761D01*
X166084819Y-59404761D02*
X166084819Y-59690475D01*
X166084819Y-59690475D02*
X166037200Y-59785713D01*
X166037200Y-59785713D02*
X165989580Y-59833332D01*
X194857142Y-85454819D02*
X194523809Y-84978628D01*
X194285714Y-85454819D02*
X194285714Y-84454819D01*
X194285714Y-84454819D02*
X194666666Y-84454819D01*
X194666666Y-84454819D02*
X194761904Y-84502438D01*
X194761904Y-84502438D02*
X194809523Y-84550057D01*
X194809523Y-84550057D02*
X194857142Y-84645295D01*
X194857142Y-84645295D02*
X194857142Y-84788152D01*
X194857142Y-84788152D02*
X194809523Y-84883390D01*
X194809523Y-84883390D02*
X194761904Y-84931009D01*
X194761904Y-84931009D02*
X194666666Y-84978628D01*
X194666666Y-84978628D02*
X194285714Y-84978628D01*
X195809523Y-85454819D02*
X195238095Y-85454819D01*
X195523809Y-85454819D02*
X195523809Y-84454819D01*
X195523809Y-84454819D02*
X195428571Y-84597676D01*
X195428571Y-84597676D02*
X195333333Y-84692914D01*
X195333333Y-84692914D02*
X195238095Y-84740533D01*
X196142857Y-84454819D02*
X196809523Y-84454819D01*
X196809523Y-84454819D02*
X196380952Y-85454819D01*
X159166667Y-116157200D02*
X159309524Y-116204819D01*
X159309524Y-116204819D02*
X159547619Y-116204819D01*
X159547619Y-116204819D02*
X159642857Y-116157200D01*
X159642857Y-116157200D02*
X159690476Y-116109580D01*
X159690476Y-116109580D02*
X159738095Y-116014342D01*
X159738095Y-116014342D02*
X159738095Y-115919104D01*
X159738095Y-115919104D02*
X159690476Y-115823866D01*
X159690476Y-115823866D02*
X159642857Y-115776247D01*
X159642857Y-115776247D02*
X159547619Y-115728628D01*
X159547619Y-115728628D02*
X159357143Y-115681009D01*
X159357143Y-115681009D02*
X159261905Y-115633390D01*
X159261905Y-115633390D02*
X159214286Y-115585771D01*
X159214286Y-115585771D02*
X159166667Y-115490533D01*
X159166667Y-115490533D02*
X159166667Y-115395295D01*
X159166667Y-115395295D02*
X159214286Y-115300057D01*
X159214286Y-115300057D02*
X159261905Y-115252438D01*
X159261905Y-115252438D02*
X159357143Y-115204819D01*
X159357143Y-115204819D02*
X159595238Y-115204819D01*
X159595238Y-115204819D02*
X159738095Y-115252438D01*
X160071429Y-115204819D02*
X160309524Y-116204819D01*
X160309524Y-116204819D02*
X160500000Y-115490533D01*
X160500000Y-115490533D02*
X160690476Y-116204819D01*
X160690476Y-116204819D02*
X160928572Y-115204819D01*
X161833333Y-116204819D02*
X161261905Y-116204819D01*
X161547619Y-116204819D02*
X161547619Y-115204819D01*
X161547619Y-115204819D02*
X161452381Y-115347676D01*
X161452381Y-115347676D02*
X161357143Y-115442914D01*
X161357143Y-115442914D02*
X161261905Y-115490533D01*
X190357142Y-105624819D02*
X190023809Y-105148628D01*
X189785714Y-105624819D02*
X189785714Y-104624819D01*
X189785714Y-104624819D02*
X190166666Y-104624819D01*
X190166666Y-104624819D02*
X190261904Y-104672438D01*
X190261904Y-104672438D02*
X190309523Y-104720057D01*
X190309523Y-104720057D02*
X190357142Y-104815295D01*
X190357142Y-104815295D02*
X190357142Y-104958152D01*
X190357142Y-104958152D02*
X190309523Y-105053390D01*
X190309523Y-105053390D02*
X190261904Y-105101009D01*
X190261904Y-105101009D02*
X190166666Y-105148628D01*
X190166666Y-105148628D02*
X189785714Y-105148628D01*
X191309523Y-105624819D02*
X190738095Y-105624819D01*
X191023809Y-105624819D02*
X191023809Y-104624819D01*
X191023809Y-104624819D02*
X190928571Y-104767676D01*
X190928571Y-104767676D02*
X190833333Y-104862914D01*
X190833333Y-104862914D02*
X190738095Y-104910533D01*
X192166666Y-104958152D02*
X192166666Y-105624819D01*
X191928571Y-104577200D02*
X191690476Y-105291485D01*
X191690476Y-105291485D02*
X192309523Y-105291485D01*
X168624819Y-110092857D02*
X168148628Y-110426190D01*
X168624819Y-110664285D02*
X167624819Y-110664285D01*
X167624819Y-110664285D02*
X167624819Y-110283333D01*
X167624819Y-110283333D02*
X167672438Y-110188095D01*
X167672438Y-110188095D02*
X167720057Y-110140476D01*
X167720057Y-110140476D02*
X167815295Y-110092857D01*
X167815295Y-110092857D02*
X167958152Y-110092857D01*
X167958152Y-110092857D02*
X168053390Y-110140476D01*
X168053390Y-110140476D02*
X168101009Y-110188095D01*
X168101009Y-110188095D02*
X168148628Y-110283333D01*
X168148628Y-110283333D02*
X168148628Y-110664285D01*
X168624819Y-109140476D02*
X168624819Y-109711904D01*
X168624819Y-109426190D02*
X167624819Y-109426190D01*
X167624819Y-109426190D02*
X167767676Y-109521428D01*
X167767676Y-109521428D02*
X167862914Y-109616666D01*
X167862914Y-109616666D02*
X167910533Y-109711904D01*
X168624819Y-108188095D02*
X168624819Y-108759523D01*
X168624819Y-108473809D02*
X167624819Y-108473809D01*
X167624819Y-108473809D02*
X167767676Y-108569047D01*
X167767676Y-108569047D02*
X167862914Y-108664285D01*
X167862914Y-108664285D02*
X167910533Y-108759523D01*
X172164819Y-72733094D02*
X171164819Y-72733094D01*
X171164819Y-72733094D02*
X171164819Y-72494999D01*
X171164819Y-72494999D02*
X171212438Y-72352142D01*
X171212438Y-72352142D02*
X171307676Y-72256904D01*
X171307676Y-72256904D02*
X171402914Y-72209285D01*
X171402914Y-72209285D02*
X171593390Y-72161666D01*
X171593390Y-72161666D02*
X171736247Y-72161666D01*
X171736247Y-72161666D02*
X171926723Y-72209285D01*
X171926723Y-72209285D02*
X172021961Y-72256904D01*
X172021961Y-72256904D02*
X172117200Y-72352142D01*
X172117200Y-72352142D02*
X172164819Y-72494999D01*
X172164819Y-72494999D02*
X172164819Y-72733094D01*
X171164819Y-71828332D02*
X171164819Y-71209285D01*
X171164819Y-71209285D02*
X171545771Y-71542618D01*
X171545771Y-71542618D02*
X171545771Y-71399761D01*
X171545771Y-71399761D02*
X171593390Y-71304523D01*
X171593390Y-71304523D02*
X171641009Y-71256904D01*
X171641009Y-71256904D02*
X171736247Y-71209285D01*
X171736247Y-71209285D02*
X171974342Y-71209285D01*
X171974342Y-71209285D02*
X172069580Y-71256904D01*
X172069580Y-71256904D02*
X172117200Y-71304523D01*
X172117200Y-71304523D02*
X172164819Y-71399761D01*
X172164819Y-71399761D02*
X172164819Y-71685475D01*
X172164819Y-71685475D02*
X172117200Y-71780713D01*
X172117200Y-71780713D02*
X172069580Y-71828332D01*
X179954819Y-68488094D02*
X178954819Y-68488094D01*
X178954819Y-68488094D02*
X178954819Y-68249999D01*
X178954819Y-68249999D02*
X179002438Y-68107142D01*
X179002438Y-68107142D02*
X179097676Y-68011904D01*
X179097676Y-68011904D02*
X179192914Y-67964285D01*
X179192914Y-67964285D02*
X179383390Y-67916666D01*
X179383390Y-67916666D02*
X179526247Y-67916666D01*
X179526247Y-67916666D02*
X179716723Y-67964285D01*
X179716723Y-67964285D02*
X179811961Y-68011904D01*
X179811961Y-68011904D02*
X179907200Y-68107142D01*
X179907200Y-68107142D02*
X179954819Y-68249999D01*
X179954819Y-68249999D02*
X179954819Y-68488094D01*
X179050057Y-67535713D02*
X179002438Y-67488094D01*
X179002438Y-67488094D02*
X178954819Y-67392856D01*
X178954819Y-67392856D02*
X178954819Y-67154761D01*
X178954819Y-67154761D02*
X179002438Y-67059523D01*
X179002438Y-67059523D02*
X179050057Y-67011904D01*
X179050057Y-67011904D02*
X179145295Y-66964285D01*
X179145295Y-66964285D02*
X179240533Y-66964285D01*
X179240533Y-66964285D02*
X179383390Y-67011904D01*
X179383390Y-67011904D02*
X179954819Y-67583332D01*
X179954819Y-67583332D02*
X179954819Y-66964285D01*
X165048095Y-78924819D02*
X165048095Y-79734342D01*
X165048095Y-79734342D02*
X165095714Y-79829580D01*
X165095714Y-79829580D02*
X165143333Y-79877200D01*
X165143333Y-79877200D02*
X165238571Y-79924819D01*
X165238571Y-79924819D02*
X165429047Y-79924819D01*
X165429047Y-79924819D02*
X165524285Y-79877200D01*
X165524285Y-79877200D02*
X165571904Y-79829580D01*
X165571904Y-79829580D02*
X165619523Y-79734342D01*
X165619523Y-79734342D02*
X165619523Y-78924819D01*
X166000476Y-78924819D02*
X166619523Y-78924819D01*
X166619523Y-78924819D02*
X166286190Y-79305771D01*
X166286190Y-79305771D02*
X166429047Y-79305771D01*
X166429047Y-79305771D02*
X166524285Y-79353390D01*
X166524285Y-79353390D02*
X166571904Y-79401009D01*
X166571904Y-79401009D02*
X166619523Y-79496247D01*
X166619523Y-79496247D02*
X166619523Y-79734342D01*
X166619523Y-79734342D02*
X166571904Y-79829580D01*
X166571904Y-79829580D02*
X166524285Y-79877200D01*
X166524285Y-79877200D02*
X166429047Y-79924819D01*
X166429047Y-79924819D02*
X166143333Y-79924819D01*
X166143333Y-79924819D02*
X166048095Y-79877200D01*
X166048095Y-79877200D02*
X166000476Y-79829580D01*
X133209580Y-103229166D02*
X133257200Y-103276785D01*
X133257200Y-103276785D02*
X133304819Y-103419642D01*
X133304819Y-103419642D02*
X133304819Y-103514880D01*
X133304819Y-103514880D02*
X133257200Y-103657737D01*
X133257200Y-103657737D02*
X133161961Y-103752975D01*
X133161961Y-103752975D02*
X133066723Y-103800594D01*
X133066723Y-103800594D02*
X132876247Y-103848213D01*
X132876247Y-103848213D02*
X132733390Y-103848213D01*
X132733390Y-103848213D02*
X132542914Y-103800594D01*
X132542914Y-103800594D02*
X132447676Y-103752975D01*
X132447676Y-103752975D02*
X132352438Y-103657737D01*
X132352438Y-103657737D02*
X132304819Y-103514880D01*
X132304819Y-103514880D02*
X132304819Y-103419642D01*
X132304819Y-103419642D02*
X132352438Y-103276785D01*
X132352438Y-103276785D02*
X132400057Y-103229166D01*
X132304819Y-102324404D02*
X132304819Y-102800594D01*
X132304819Y-102800594D02*
X132781009Y-102848213D01*
X132781009Y-102848213D02*
X132733390Y-102800594D01*
X132733390Y-102800594D02*
X132685771Y-102705356D01*
X132685771Y-102705356D02*
X132685771Y-102467261D01*
X132685771Y-102467261D02*
X132733390Y-102372023D01*
X132733390Y-102372023D02*
X132781009Y-102324404D01*
X132781009Y-102324404D02*
X132876247Y-102276785D01*
X132876247Y-102276785D02*
X133114342Y-102276785D01*
X133114342Y-102276785D02*
X133209580Y-102324404D01*
X133209580Y-102324404D02*
X133257200Y-102372023D01*
X133257200Y-102372023D02*
X133304819Y-102467261D01*
X133304819Y-102467261D02*
X133304819Y-102705356D01*
X133304819Y-102705356D02*
X133257200Y-102800594D01*
X133257200Y-102800594D02*
X133209580Y-102848213D01*
X146509580Y-109729166D02*
X146557200Y-109776785D01*
X146557200Y-109776785D02*
X146604819Y-109919642D01*
X146604819Y-109919642D02*
X146604819Y-110014880D01*
X146604819Y-110014880D02*
X146557200Y-110157737D01*
X146557200Y-110157737D02*
X146461961Y-110252975D01*
X146461961Y-110252975D02*
X146366723Y-110300594D01*
X146366723Y-110300594D02*
X146176247Y-110348213D01*
X146176247Y-110348213D02*
X146033390Y-110348213D01*
X146033390Y-110348213D02*
X145842914Y-110300594D01*
X145842914Y-110300594D02*
X145747676Y-110252975D01*
X145747676Y-110252975D02*
X145652438Y-110157737D01*
X145652438Y-110157737D02*
X145604819Y-110014880D01*
X145604819Y-110014880D02*
X145604819Y-109919642D01*
X145604819Y-109919642D02*
X145652438Y-109776785D01*
X145652438Y-109776785D02*
X145700057Y-109729166D01*
X145604819Y-109395832D02*
X145604819Y-108776785D01*
X145604819Y-108776785D02*
X145985771Y-109110118D01*
X145985771Y-109110118D02*
X145985771Y-108967261D01*
X145985771Y-108967261D02*
X146033390Y-108872023D01*
X146033390Y-108872023D02*
X146081009Y-108824404D01*
X146081009Y-108824404D02*
X146176247Y-108776785D01*
X146176247Y-108776785D02*
X146414342Y-108776785D01*
X146414342Y-108776785D02*
X146509580Y-108824404D01*
X146509580Y-108824404D02*
X146557200Y-108872023D01*
X146557200Y-108872023D02*
X146604819Y-108967261D01*
X146604819Y-108967261D02*
X146604819Y-109252975D01*
X146604819Y-109252975D02*
X146557200Y-109348213D01*
X146557200Y-109348213D02*
X146509580Y-109395832D01*
X194833333Y-101454819D02*
X194500000Y-100978628D01*
X194261905Y-101454819D02*
X194261905Y-100454819D01*
X194261905Y-100454819D02*
X194642857Y-100454819D01*
X194642857Y-100454819D02*
X194738095Y-100502438D01*
X194738095Y-100502438D02*
X194785714Y-100550057D01*
X194785714Y-100550057D02*
X194833333Y-100645295D01*
X194833333Y-100645295D02*
X194833333Y-100788152D01*
X194833333Y-100788152D02*
X194785714Y-100883390D01*
X194785714Y-100883390D02*
X194738095Y-100931009D01*
X194738095Y-100931009D02*
X194642857Y-100978628D01*
X194642857Y-100978628D02*
X194261905Y-100978628D01*
X195404762Y-100883390D02*
X195309524Y-100835771D01*
X195309524Y-100835771D02*
X195261905Y-100788152D01*
X195261905Y-100788152D02*
X195214286Y-100692914D01*
X195214286Y-100692914D02*
X195214286Y-100645295D01*
X195214286Y-100645295D02*
X195261905Y-100550057D01*
X195261905Y-100550057D02*
X195309524Y-100502438D01*
X195309524Y-100502438D02*
X195404762Y-100454819D01*
X195404762Y-100454819D02*
X195595238Y-100454819D01*
X195595238Y-100454819D02*
X195690476Y-100502438D01*
X195690476Y-100502438D02*
X195738095Y-100550057D01*
X195738095Y-100550057D02*
X195785714Y-100645295D01*
X195785714Y-100645295D02*
X195785714Y-100692914D01*
X195785714Y-100692914D02*
X195738095Y-100788152D01*
X195738095Y-100788152D02*
X195690476Y-100835771D01*
X195690476Y-100835771D02*
X195595238Y-100883390D01*
X195595238Y-100883390D02*
X195404762Y-100883390D01*
X195404762Y-100883390D02*
X195309524Y-100931009D01*
X195309524Y-100931009D02*
X195261905Y-100978628D01*
X195261905Y-100978628D02*
X195214286Y-101073866D01*
X195214286Y-101073866D02*
X195214286Y-101264342D01*
X195214286Y-101264342D02*
X195261905Y-101359580D01*
X195261905Y-101359580D02*
X195309524Y-101407200D01*
X195309524Y-101407200D02*
X195404762Y-101454819D01*
X195404762Y-101454819D02*
X195595238Y-101454819D01*
X195595238Y-101454819D02*
X195690476Y-101407200D01*
X195690476Y-101407200D02*
X195738095Y-101359580D01*
X195738095Y-101359580D02*
X195785714Y-101264342D01*
X195785714Y-101264342D02*
X195785714Y-101073866D01*
X195785714Y-101073866D02*
X195738095Y-100978628D01*
X195738095Y-100978628D02*
X195690476Y-100931009D01*
X195690476Y-100931009D02*
X195595238Y-100883390D01*
X119238095Y-114004819D02*
X119238095Y-113004819D01*
X119238095Y-113481009D02*
X119809523Y-113481009D01*
X119809523Y-114004819D02*
X119809523Y-113004819D01*
X120190476Y-113004819D02*
X120809523Y-113004819D01*
X120809523Y-113004819D02*
X120476190Y-113385771D01*
X120476190Y-113385771D02*
X120619047Y-113385771D01*
X120619047Y-113385771D02*
X120714285Y-113433390D01*
X120714285Y-113433390D02*
X120761904Y-113481009D01*
X120761904Y-113481009D02*
X120809523Y-113576247D01*
X120809523Y-113576247D02*
X120809523Y-113814342D01*
X120809523Y-113814342D02*
X120761904Y-113909580D01*
X120761904Y-113909580D02*
X120714285Y-113957200D01*
X120714285Y-113957200D02*
X120619047Y-114004819D01*
X120619047Y-114004819D02*
X120333333Y-114004819D01*
X120333333Y-114004819D02*
X120238095Y-113957200D01*
X120238095Y-113957200D02*
X120190476Y-113909580D01*
X151124819Y-110142857D02*
X150648628Y-110476190D01*
X151124819Y-110714285D02*
X150124819Y-110714285D01*
X150124819Y-110714285D02*
X150124819Y-110333333D01*
X150124819Y-110333333D02*
X150172438Y-110238095D01*
X150172438Y-110238095D02*
X150220057Y-110190476D01*
X150220057Y-110190476D02*
X150315295Y-110142857D01*
X150315295Y-110142857D02*
X150458152Y-110142857D01*
X150458152Y-110142857D02*
X150553390Y-110190476D01*
X150553390Y-110190476D02*
X150601009Y-110238095D01*
X150601009Y-110238095D02*
X150648628Y-110333333D01*
X150648628Y-110333333D02*
X150648628Y-110714285D01*
X151124819Y-109190476D02*
X151124819Y-109761904D01*
X151124819Y-109476190D02*
X150124819Y-109476190D01*
X150124819Y-109476190D02*
X150267676Y-109571428D01*
X150267676Y-109571428D02*
X150362914Y-109666666D01*
X150362914Y-109666666D02*
X150410533Y-109761904D01*
X150124819Y-108857142D02*
X150124819Y-108238095D01*
X150124819Y-108238095D02*
X150505771Y-108571428D01*
X150505771Y-108571428D02*
X150505771Y-108428571D01*
X150505771Y-108428571D02*
X150553390Y-108333333D01*
X150553390Y-108333333D02*
X150601009Y-108285714D01*
X150601009Y-108285714D02*
X150696247Y-108238095D01*
X150696247Y-108238095D02*
X150934342Y-108238095D01*
X150934342Y-108238095D02*
X151029580Y-108285714D01*
X151029580Y-108285714D02*
X151077200Y-108333333D01*
X151077200Y-108333333D02*
X151124819Y-108428571D01*
X151124819Y-108428571D02*
X151124819Y-108714285D01*
X151124819Y-108714285D02*
X151077200Y-108809523D01*
X151077200Y-108809523D02*
X151029580Y-108857142D01*
X173084819Y-60166666D02*
X172608628Y-60499999D01*
X173084819Y-60738094D02*
X172084819Y-60738094D01*
X172084819Y-60738094D02*
X172084819Y-60357142D01*
X172084819Y-60357142D02*
X172132438Y-60261904D01*
X172132438Y-60261904D02*
X172180057Y-60214285D01*
X172180057Y-60214285D02*
X172275295Y-60166666D01*
X172275295Y-60166666D02*
X172418152Y-60166666D01*
X172418152Y-60166666D02*
X172513390Y-60214285D01*
X172513390Y-60214285D02*
X172561009Y-60261904D01*
X172561009Y-60261904D02*
X172608628Y-60357142D01*
X172608628Y-60357142D02*
X172608628Y-60738094D01*
X172180057Y-59785713D02*
X172132438Y-59738094D01*
X172132438Y-59738094D02*
X172084819Y-59642856D01*
X172084819Y-59642856D02*
X172084819Y-59404761D01*
X172084819Y-59404761D02*
X172132438Y-59309523D01*
X172132438Y-59309523D02*
X172180057Y-59261904D01*
X172180057Y-59261904D02*
X172275295Y-59214285D01*
X172275295Y-59214285D02*
X172370533Y-59214285D01*
X172370533Y-59214285D02*
X172513390Y-59261904D01*
X172513390Y-59261904D02*
X173084819Y-59833332D01*
X173084819Y-59833332D02*
X173084819Y-59214285D01*
X119238095Y-54004819D02*
X119238095Y-53004819D01*
X119238095Y-53481009D02*
X119809523Y-53481009D01*
X119809523Y-54004819D02*
X119809523Y-53004819D01*
X120809523Y-54004819D02*
X120238095Y-54004819D01*
X120523809Y-54004819D02*
X120523809Y-53004819D01*
X120523809Y-53004819D02*
X120428571Y-53147676D01*
X120428571Y-53147676D02*
X120333333Y-53242914D01*
X120333333Y-53242914D02*
X120238095Y-53290533D01*
X122333333Y-108509580D02*
X122285714Y-108557200D01*
X122285714Y-108557200D02*
X122142857Y-108604819D01*
X122142857Y-108604819D02*
X122047619Y-108604819D01*
X122047619Y-108604819D02*
X121904762Y-108557200D01*
X121904762Y-108557200D02*
X121809524Y-108461961D01*
X121809524Y-108461961D02*
X121761905Y-108366723D01*
X121761905Y-108366723D02*
X121714286Y-108176247D01*
X121714286Y-108176247D02*
X121714286Y-108033390D01*
X121714286Y-108033390D02*
X121761905Y-107842914D01*
X121761905Y-107842914D02*
X121809524Y-107747676D01*
X121809524Y-107747676D02*
X121904762Y-107652438D01*
X121904762Y-107652438D02*
X122047619Y-107604819D01*
X122047619Y-107604819D02*
X122142857Y-107604819D01*
X122142857Y-107604819D02*
X122285714Y-107652438D01*
X122285714Y-107652438D02*
X122333333Y-107700057D01*
X123190476Y-107938152D02*
X123190476Y-108604819D01*
X122952381Y-107557200D02*
X122714286Y-108271485D01*
X122714286Y-108271485D02*
X123333333Y-108271485D01*
X179738095Y-78734819D02*
X179738095Y-79544342D01*
X179738095Y-79544342D02*
X179785714Y-79639580D01*
X179785714Y-79639580D02*
X179833333Y-79687200D01*
X179833333Y-79687200D02*
X179928571Y-79734819D01*
X179928571Y-79734819D02*
X180119047Y-79734819D01*
X180119047Y-79734819D02*
X180214285Y-79687200D01*
X180214285Y-79687200D02*
X180261904Y-79639580D01*
X180261904Y-79639580D02*
X180309523Y-79544342D01*
X180309523Y-79544342D02*
X180309523Y-78734819D01*
X181214285Y-79068152D02*
X181214285Y-79734819D01*
X180976190Y-78687200D02*
X180738095Y-79401485D01*
X180738095Y-79401485D02*
X181357142Y-79401485D01*
X199238095Y-54004819D02*
X199238095Y-53004819D01*
X199238095Y-53481009D02*
X199809523Y-53481009D01*
X199809523Y-54004819D02*
X199809523Y-53004819D01*
X200238095Y-53100057D02*
X200285714Y-53052438D01*
X200285714Y-53052438D02*
X200380952Y-53004819D01*
X200380952Y-53004819D02*
X200619047Y-53004819D01*
X200619047Y-53004819D02*
X200714285Y-53052438D01*
X200714285Y-53052438D02*
X200761904Y-53100057D01*
X200761904Y-53100057D02*
X200809523Y-53195295D01*
X200809523Y-53195295D02*
X200809523Y-53290533D01*
X200809523Y-53290533D02*
X200761904Y-53433390D01*
X200761904Y-53433390D02*
X200190476Y-54004819D01*
X200190476Y-54004819D02*
X200809523Y-54004819D01*
X159824819Y-109666666D02*
X159348628Y-109999999D01*
X159824819Y-110238094D02*
X158824819Y-110238094D01*
X158824819Y-110238094D02*
X158824819Y-109857142D01*
X158824819Y-109857142D02*
X158872438Y-109761904D01*
X158872438Y-109761904D02*
X158920057Y-109714285D01*
X158920057Y-109714285D02*
X159015295Y-109666666D01*
X159015295Y-109666666D02*
X159158152Y-109666666D01*
X159158152Y-109666666D02*
X159253390Y-109714285D01*
X159253390Y-109714285D02*
X159301009Y-109761904D01*
X159301009Y-109761904D02*
X159348628Y-109857142D01*
X159348628Y-109857142D02*
X159348628Y-110238094D01*
X159824819Y-109190475D02*
X159824819Y-108999999D01*
X159824819Y-108999999D02*
X159777200Y-108904761D01*
X159777200Y-108904761D02*
X159729580Y-108857142D01*
X159729580Y-108857142D02*
X159586723Y-108761904D01*
X159586723Y-108761904D02*
X159396247Y-108714285D01*
X159396247Y-108714285D02*
X159015295Y-108714285D01*
X159015295Y-108714285D02*
X158920057Y-108761904D01*
X158920057Y-108761904D02*
X158872438Y-108809523D01*
X158872438Y-108809523D02*
X158824819Y-108904761D01*
X158824819Y-108904761D02*
X158824819Y-109095237D01*
X158824819Y-109095237D02*
X158872438Y-109190475D01*
X158872438Y-109190475D02*
X158920057Y-109238094D01*
X158920057Y-109238094D02*
X159015295Y-109285713D01*
X159015295Y-109285713D02*
X159253390Y-109285713D01*
X159253390Y-109285713D02*
X159348628Y-109238094D01*
X159348628Y-109238094D02*
X159396247Y-109190475D01*
X159396247Y-109190475D02*
X159443866Y-109095237D01*
X159443866Y-109095237D02*
X159443866Y-108904761D01*
X159443866Y-108904761D02*
X159396247Y-108809523D01*
X159396247Y-108809523D02*
X159348628Y-108761904D01*
X159348628Y-108761904D02*
X159253390Y-108714285D01*
X187414819Y-73008094D02*
X186414819Y-73008094D01*
X186414819Y-73008094D02*
X186414819Y-72769999D01*
X186414819Y-72769999D02*
X186462438Y-72627142D01*
X186462438Y-72627142D02*
X186557676Y-72531904D01*
X186557676Y-72531904D02*
X186652914Y-72484285D01*
X186652914Y-72484285D02*
X186843390Y-72436666D01*
X186843390Y-72436666D02*
X186986247Y-72436666D01*
X186986247Y-72436666D02*
X187176723Y-72484285D01*
X187176723Y-72484285D02*
X187271961Y-72531904D01*
X187271961Y-72531904D02*
X187367200Y-72627142D01*
X187367200Y-72627142D02*
X187414819Y-72769999D01*
X187414819Y-72769999D02*
X187414819Y-73008094D01*
X187414819Y-71484285D02*
X187414819Y-72055713D01*
X187414819Y-71769999D02*
X186414819Y-71769999D01*
X186414819Y-71769999D02*
X186557676Y-71865237D01*
X186557676Y-71865237D02*
X186652914Y-71960475D01*
X186652914Y-71960475D02*
X186700533Y-72055713D01*
X194607142Y-89204819D02*
X194273809Y-88728628D01*
X194035714Y-89204819D02*
X194035714Y-88204819D01*
X194035714Y-88204819D02*
X194416666Y-88204819D01*
X194416666Y-88204819D02*
X194511904Y-88252438D01*
X194511904Y-88252438D02*
X194559523Y-88300057D01*
X194559523Y-88300057D02*
X194607142Y-88395295D01*
X194607142Y-88395295D02*
X194607142Y-88538152D01*
X194607142Y-88538152D02*
X194559523Y-88633390D01*
X194559523Y-88633390D02*
X194511904Y-88681009D01*
X194511904Y-88681009D02*
X194416666Y-88728628D01*
X194416666Y-88728628D02*
X194035714Y-88728628D01*
X195559523Y-89204819D02*
X194988095Y-89204819D01*
X195273809Y-89204819D02*
X195273809Y-88204819D01*
X195273809Y-88204819D02*
X195178571Y-88347676D01*
X195178571Y-88347676D02*
X195083333Y-88442914D01*
X195083333Y-88442914D02*
X194988095Y-88490533D01*
X196130952Y-88633390D02*
X196035714Y-88585771D01*
X196035714Y-88585771D02*
X195988095Y-88538152D01*
X195988095Y-88538152D02*
X195940476Y-88442914D01*
X195940476Y-88442914D02*
X195940476Y-88395295D01*
X195940476Y-88395295D02*
X195988095Y-88300057D01*
X195988095Y-88300057D02*
X196035714Y-88252438D01*
X196035714Y-88252438D02*
X196130952Y-88204819D01*
X196130952Y-88204819D02*
X196321428Y-88204819D01*
X196321428Y-88204819D02*
X196416666Y-88252438D01*
X196416666Y-88252438D02*
X196464285Y-88300057D01*
X196464285Y-88300057D02*
X196511904Y-88395295D01*
X196511904Y-88395295D02*
X196511904Y-88442914D01*
X196511904Y-88442914D02*
X196464285Y-88538152D01*
X196464285Y-88538152D02*
X196416666Y-88585771D01*
X196416666Y-88585771D02*
X196321428Y-88633390D01*
X196321428Y-88633390D02*
X196130952Y-88633390D01*
X196130952Y-88633390D02*
X196035714Y-88681009D01*
X196035714Y-88681009D02*
X195988095Y-88728628D01*
X195988095Y-88728628D02*
X195940476Y-88823866D01*
X195940476Y-88823866D02*
X195940476Y-89014342D01*
X195940476Y-89014342D02*
X195988095Y-89109580D01*
X195988095Y-89109580D02*
X196035714Y-89157200D01*
X196035714Y-89157200D02*
X196130952Y-89204819D01*
X196130952Y-89204819D02*
X196321428Y-89204819D01*
X196321428Y-89204819D02*
X196416666Y-89157200D01*
X196416666Y-89157200D02*
X196464285Y-89109580D01*
X196464285Y-89109580D02*
X196511904Y-89014342D01*
X196511904Y-89014342D02*
X196511904Y-88823866D01*
X196511904Y-88823866D02*
X196464285Y-88728628D01*
X196464285Y-88728628D02*
X196416666Y-88681009D01*
X196416666Y-88681009D02*
X196321428Y-88633390D01*
X194857142Y-81704819D02*
X194523809Y-81228628D01*
X194285714Y-81704819D02*
X194285714Y-80704819D01*
X194285714Y-80704819D02*
X194666666Y-80704819D01*
X194666666Y-80704819D02*
X194761904Y-80752438D01*
X194761904Y-80752438D02*
X194809523Y-80800057D01*
X194809523Y-80800057D02*
X194857142Y-80895295D01*
X194857142Y-80895295D02*
X194857142Y-81038152D01*
X194857142Y-81038152D02*
X194809523Y-81133390D01*
X194809523Y-81133390D02*
X194761904Y-81181009D01*
X194761904Y-81181009D02*
X194666666Y-81228628D01*
X194666666Y-81228628D02*
X194285714Y-81228628D01*
X195809523Y-81704819D02*
X195238095Y-81704819D01*
X195523809Y-81704819D02*
X195523809Y-80704819D01*
X195523809Y-80704819D02*
X195428571Y-80847676D01*
X195428571Y-80847676D02*
X195333333Y-80942914D01*
X195333333Y-80942914D02*
X195238095Y-80990533D01*
X196714285Y-80704819D02*
X196238095Y-80704819D01*
X196238095Y-80704819D02*
X196190476Y-81181009D01*
X196190476Y-81181009D02*
X196238095Y-81133390D01*
X196238095Y-81133390D02*
X196333333Y-81085771D01*
X196333333Y-81085771D02*
X196571428Y-81085771D01*
X196571428Y-81085771D02*
X196666666Y-81133390D01*
X196666666Y-81133390D02*
X196714285Y-81181009D01*
X196714285Y-81181009D02*
X196761904Y-81276247D01*
X196761904Y-81276247D02*
X196761904Y-81514342D01*
X196761904Y-81514342D02*
X196714285Y-81609580D01*
X196714285Y-81609580D02*
X196666666Y-81657200D01*
X196666666Y-81657200D02*
X196571428Y-81704819D01*
X196571428Y-81704819D02*
X196333333Y-81704819D01*
X196333333Y-81704819D02*
X196238095Y-81657200D01*
X196238095Y-81657200D02*
X196190476Y-81609580D01*
X181084819Y-60166666D02*
X180608628Y-60499999D01*
X181084819Y-60738094D02*
X180084819Y-60738094D01*
X180084819Y-60738094D02*
X180084819Y-60357142D01*
X180084819Y-60357142D02*
X180132438Y-60261904D01*
X180132438Y-60261904D02*
X180180057Y-60214285D01*
X180180057Y-60214285D02*
X180275295Y-60166666D01*
X180275295Y-60166666D02*
X180418152Y-60166666D01*
X180418152Y-60166666D02*
X180513390Y-60214285D01*
X180513390Y-60214285D02*
X180561009Y-60261904D01*
X180561009Y-60261904D02*
X180608628Y-60357142D01*
X180608628Y-60357142D02*
X180608628Y-60738094D01*
X181084819Y-59214285D02*
X181084819Y-59785713D01*
X181084819Y-59499999D02*
X180084819Y-59499999D01*
X180084819Y-59499999D02*
X180227676Y-59595237D01*
X180227676Y-59595237D02*
X180322914Y-59690475D01*
X180322914Y-59690475D02*
X180370533Y-59785713D01*
X132609580Y-62666666D02*
X132657200Y-62714285D01*
X132657200Y-62714285D02*
X132704819Y-62857142D01*
X132704819Y-62857142D02*
X132704819Y-62952380D01*
X132704819Y-62952380D02*
X132657200Y-63095237D01*
X132657200Y-63095237D02*
X132561961Y-63190475D01*
X132561961Y-63190475D02*
X132466723Y-63238094D01*
X132466723Y-63238094D02*
X132276247Y-63285713D01*
X132276247Y-63285713D02*
X132133390Y-63285713D01*
X132133390Y-63285713D02*
X131942914Y-63238094D01*
X131942914Y-63238094D02*
X131847676Y-63190475D01*
X131847676Y-63190475D02*
X131752438Y-63095237D01*
X131752438Y-63095237D02*
X131704819Y-62952380D01*
X131704819Y-62952380D02*
X131704819Y-62857142D01*
X131704819Y-62857142D02*
X131752438Y-62714285D01*
X131752438Y-62714285D02*
X131800057Y-62666666D01*
X132704819Y-61714285D02*
X132704819Y-62285713D01*
X132704819Y-61999999D02*
X131704819Y-61999999D01*
X131704819Y-61999999D02*
X131847676Y-62095237D01*
X131847676Y-62095237D02*
X131942914Y-62190475D01*
X131942914Y-62190475D02*
X131990533Y-62285713D01*
X164124819Y-110142857D02*
X163648628Y-110476190D01*
X164124819Y-110714285D02*
X163124819Y-110714285D01*
X163124819Y-110714285D02*
X163124819Y-110333333D01*
X163124819Y-110333333D02*
X163172438Y-110238095D01*
X163172438Y-110238095D02*
X163220057Y-110190476D01*
X163220057Y-110190476D02*
X163315295Y-110142857D01*
X163315295Y-110142857D02*
X163458152Y-110142857D01*
X163458152Y-110142857D02*
X163553390Y-110190476D01*
X163553390Y-110190476D02*
X163601009Y-110238095D01*
X163601009Y-110238095D02*
X163648628Y-110333333D01*
X163648628Y-110333333D02*
X163648628Y-110714285D01*
X164124819Y-109190476D02*
X164124819Y-109761904D01*
X164124819Y-109476190D02*
X163124819Y-109476190D01*
X163124819Y-109476190D02*
X163267676Y-109571428D01*
X163267676Y-109571428D02*
X163362914Y-109666666D01*
X163362914Y-109666666D02*
X163410533Y-109761904D01*
X163124819Y-108571428D02*
X163124819Y-108476190D01*
X163124819Y-108476190D02*
X163172438Y-108380952D01*
X163172438Y-108380952D02*
X163220057Y-108333333D01*
X163220057Y-108333333D02*
X163315295Y-108285714D01*
X163315295Y-108285714D02*
X163505771Y-108238095D01*
X163505771Y-108238095D02*
X163743866Y-108238095D01*
X163743866Y-108238095D02*
X163934342Y-108285714D01*
X163934342Y-108285714D02*
X164029580Y-108333333D01*
X164029580Y-108333333D02*
X164077200Y-108380952D01*
X164077200Y-108380952D02*
X164124819Y-108476190D01*
X164124819Y-108476190D02*
X164124819Y-108571428D01*
X164124819Y-108571428D02*
X164077200Y-108666666D01*
X164077200Y-108666666D02*
X164029580Y-108714285D01*
X164029580Y-108714285D02*
X163934342Y-108761904D01*
X163934342Y-108761904D02*
X163743866Y-108809523D01*
X163743866Y-108809523D02*
X163505771Y-108809523D01*
X163505771Y-108809523D02*
X163315295Y-108761904D01*
X163315295Y-108761904D02*
X163220057Y-108714285D01*
X163220057Y-108714285D02*
X163172438Y-108666666D01*
X163172438Y-108666666D02*
X163124819Y-108571428D01*
X151109580Y-61666666D02*
X151157200Y-61714285D01*
X151157200Y-61714285D02*
X151204819Y-61857142D01*
X151204819Y-61857142D02*
X151204819Y-61952380D01*
X151204819Y-61952380D02*
X151157200Y-62095237D01*
X151157200Y-62095237D02*
X151061961Y-62190475D01*
X151061961Y-62190475D02*
X150966723Y-62238094D01*
X150966723Y-62238094D02*
X150776247Y-62285713D01*
X150776247Y-62285713D02*
X150633390Y-62285713D01*
X150633390Y-62285713D02*
X150442914Y-62238094D01*
X150442914Y-62238094D02*
X150347676Y-62190475D01*
X150347676Y-62190475D02*
X150252438Y-62095237D01*
X150252438Y-62095237D02*
X150204819Y-61952380D01*
X150204819Y-61952380D02*
X150204819Y-61857142D01*
X150204819Y-61857142D02*
X150252438Y-61714285D01*
X150252438Y-61714285D02*
X150300057Y-61666666D01*
X150300057Y-61285713D02*
X150252438Y-61238094D01*
X150252438Y-61238094D02*
X150204819Y-61142856D01*
X150204819Y-61142856D02*
X150204819Y-60904761D01*
X150204819Y-60904761D02*
X150252438Y-60809523D01*
X150252438Y-60809523D02*
X150300057Y-60761904D01*
X150300057Y-60761904D02*
X150395295Y-60714285D01*
X150395295Y-60714285D02*
X150490533Y-60714285D01*
X150490533Y-60714285D02*
X150633390Y-60761904D01*
X150633390Y-60761904D02*
X151204819Y-61333332D01*
X151204819Y-61333332D02*
X151204819Y-60714285D01*
X163414819Y-73008094D02*
X162414819Y-73008094D01*
X162414819Y-73008094D02*
X162414819Y-72769999D01*
X162414819Y-72769999D02*
X162462438Y-72627142D01*
X162462438Y-72627142D02*
X162557676Y-72531904D01*
X162557676Y-72531904D02*
X162652914Y-72484285D01*
X162652914Y-72484285D02*
X162843390Y-72436666D01*
X162843390Y-72436666D02*
X162986247Y-72436666D01*
X162986247Y-72436666D02*
X163176723Y-72484285D01*
X163176723Y-72484285D02*
X163271961Y-72531904D01*
X163271961Y-72531904D02*
X163367200Y-72627142D01*
X163367200Y-72627142D02*
X163414819Y-72769999D01*
X163414819Y-72769999D02*
X163414819Y-73008094D01*
X162414819Y-71531904D02*
X162414819Y-72008094D01*
X162414819Y-72008094D02*
X162891009Y-72055713D01*
X162891009Y-72055713D02*
X162843390Y-72008094D01*
X162843390Y-72008094D02*
X162795771Y-71912856D01*
X162795771Y-71912856D02*
X162795771Y-71674761D01*
X162795771Y-71674761D02*
X162843390Y-71579523D01*
X162843390Y-71579523D02*
X162891009Y-71531904D01*
X162891009Y-71531904D02*
X162986247Y-71484285D01*
X162986247Y-71484285D02*
X163224342Y-71484285D01*
X163224342Y-71484285D02*
X163319580Y-71531904D01*
X163319580Y-71531904D02*
X163367200Y-71579523D01*
X163367200Y-71579523D02*
X163414819Y-71674761D01*
X163414819Y-71674761D02*
X163414819Y-71912856D01*
X163414819Y-71912856D02*
X163367200Y-72008094D01*
X163367200Y-72008094D02*
X163319580Y-72055713D01*
X172624819Y-110092857D02*
X172148628Y-110426190D01*
X172624819Y-110664285D02*
X171624819Y-110664285D01*
X171624819Y-110664285D02*
X171624819Y-110283333D01*
X171624819Y-110283333D02*
X171672438Y-110188095D01*
X171672438Y-110188095D02*
X171720057Y-110140476D01*
X171720057Y-110140476D02*
X171815295Y-110092857D01*
X171815295Y-110092857D02*
X171958152Y-110092857D01*
X171958152Y-110092857D02*
X172053390Y-110140476D01*
X172053390Y-110140476D02*
X172101009Y-110188095D01*
X172101009Y-110188095D02*
X172148628Y-110283333D01*
X172148628Y-110283333D02*
X172148628Y-110664285D01*
X172624819Y-109140476D02*
X172624819Y-109711904D01*
X172624819Y-109426190D02*
X171624819Y-109426190D01*
X171624819Y-109426190D02*
X171767676Y-109521428D01*
X171767676Y-109521428D02*
X171862914Y-109616666D01*
X171862914Y-109616666D02*
X171910533Y-109711904D01*
X171720057Y-108759523D02*
X171672438Y-108711904D01*
X171672438Y-108711904D02*
X171624819Y-108616666D01*
X171624819Y-108616666D02*
X171624819Y-108378571D01*
X171624819Y-108378571D02*
X171672438Y-108283333D01*
X171672438Y-108283333D02*
X171720057Y-108235714D01*
X171720057Y-108235714D02*
X171815295Y-108188095D01*
X171815295Y-108188095D02*
X171910533Y-108188095D01*
X171910533Y-108188095D02*
X172053390Y-108235714D01*
X172053390Y-108235714D02*
X172624819Y-108807142D01*
X172624819Y-108807142D02*
X172624819Y-108188095D01*
X113334819Y-78333333D02*
X114049104Y-78333333D01*
X114049104Y-78333333D02*
X114191961Y-78380952D01*
X114191961Y-78380952D02*
X114287200Y-78476190D01*
X114287200Y-78476190D02*
X114334819Y-78619047D01*
X114334819Y-78619047D02*
X114334819Y-78714285D01*
X114334819Y-77333333D02*
X114334819Y-77904761D01*
X114334819Y-77619047D02*
X113334819Y-77619047D01*
X113334819Y-77619047D02*
X113477676Y-77714285D01*
X113477676Y-77714285D02*
X113572914Y-77809523D01*
X113572914Y-77809523D02*
X113620533Y-77904761D01*
X199238095Y-114004819D02*
X199238095Y-113004819D01*
X199238095Y-113481009D02*
X199809523Y-113481009D01*
X199809523Y-114004819D02*
X199809523Y-113004819D01*
X200714285Y-113338152D02*
X200714285Y-114004819D01*
X200476190Y-112957200D02*
X200238095Y-113671485D01*
X200238095Y-113671485D02*
X200857142Y-113671485D01*
X194583333Y-98204819D02*
X194250000Y-97728628D01*
X194011905Y-98204819D02*
X194011905Y-97204819D01*
X194011905Y-97204819D02*
X194392857Y-97204819D01*
X194392857Y-97204819D02*
X194488095Y-97252438D01*
X194488095Y-97252438D02*
X194535714Y-97300057D01*
X194535714Y-97300057D02*
X194583333Y-97395295D01*
X194583333Y-97395295D02*
X194583333Y-97538152D01*
X194583333Y-97538152D02*
X194535714Y-97633390D01*
X194535714Y-97633390D02*
X194488095Y-97681009D01*
X194488095Y-97681009D02*
X194392857Y-97728628D01*
X194392857Y-97728628D02*
X194011905Y-97728628D01*
X195440476Y-97204819D02*
X195250000Y-97204819D01*
X195250000Y-97204819D02*
X195154762Y-97252438D01*
X195154762Y-97252438D02*
X195107143Y-97300057D01*
X195107143Y-97300057D02*
X195011905Y-97442914D01*
X195011905Y-97442914D02*
X194964286Y-97633390D01*
X194964286Y-97633390D02*
X194964286Y-98014342D01*
X194964286Y-98014342D02*
X195011905Y-98109580D01*
X195011905Y-98109580D02*
X195059524Y-98157200D01*
X195059524Y-98157200D02*
X195154762Y-98204819D01*
X195154762Y-98204819D02*
X195345238Y-98204819D01*
X195345238Y-98204819D02*
X195440476Y-98157200D01*
X195440476Y-98157200D02*
X195488095Y-98109580D01*
X195488095Y-98109580D02*
X195535714Y-98014342D01*
X195535714Y-98014342D02*
X195535714Y-97776247D01*
X195535714Y-97776247D02*
X195488095Y-97681009D01*
X195488095Y-97681009D02*
X195440476Y-97633390D01*
X195440476Y-97633390D02*
X195345238Y-97585771D01*
X195345238Y-97585771D02*
X195154762Y-97585771D01*
X195154762Y-97585771D02*
X195059524Y-97633390D01*
X195059524Y-97633390D02*
X195011905Y-97681009D01*
X195011905Y-97681009D02*
X194964286Y-97776247D01*
D12*
%TO.C,L1*%
X150720000Y-71500000D02*
G75*
G02*
X143280000Y-71500000I-3720000J0D01*
G01*
X143280000Y-71500000D02*
G75*
G02*
X150720000Y-71500000I3720000J0D01*
G01*
%TO.C,D4*%
X130990000Y-54500000D02*
X133280000Y-54500000D01*
X134060000Y-53030000D02*
X134060000Y-55970000D01*
X134180000Y-53030000D02*
X134180000Y-55970000D01*
X134300000Y-53030000D02*
X134300000Y-55970000D01*
X141010000Y-54500000D02*
X138720000Y-54500000D01*
X133280000Y-53030000D02*
X138720000Y-53030000D01*
X138720000Y-55970000D01*
X133280000Y-55970000D01*
X133280000Y-53030000D01*
%TO.C,U6*%
X139387500Y-90890000D02*
X138587500Y-90890000D01*
X139387500Y-90890000D02*
X140187500Y-90890000D01*
X139387500Y-94010000D02*
X138587500Y-94010000D01*
X139387500Y-94010000D02*
X140187500Y-94010000D01*
X138087500Y-90940000D02*
X137847500Y-90610000D01*
X138327500Y-90610000D01*
X138087500Y-90940000D01*
G36*
X138087500Y-90940000D02*
G01*
X137847500Y-90610000D01*
X138327500Y-90610000D01*
X138087500Y-90940000D01*
G37*
%TO.C,R5*%
X190222936Y-95090000D02*
X191677064Y-95090000D01*
X190222936Y-96910000D02*
X191677064Y-96910000D01*
%TO.C,U1*%
X119750000Y-96360000D02*
X119750000Y-106640000D01*
X119750000Y-106640000D02*
X124250000Y-106640000D01*
X121000000Y-96360000D02*
X119750000Y-96360000D01*
X124250000Y-96360000D02*
X123000000Y-96360000D01*
X124250000Y-106640000D02*
X124250000Y-96360000D01*
X116750000Y-96300000D02*
X127250000Y-96300000D01*
X127250000Y-106700000D01*
X116750000Y-106700000D01*
X116750000Y-96300000D01*
X123000000Y-96360000D02*
G75*
G02*
X121000000Y-96360000I-1000000J0D01*
G01*
%TO.C,R19*%
X113090000Y-98727064D02*
X113090000Y-97272936D01*
X114910000Y-98727064D02*
X114910000Y-97272936D01*
%TO.C,R7*%
X156040000Y-110227064D02*
X156040000Y-108772936D01*
X157860000Y-110227064D02*
X157860000Y-108772936D01*
%TO.C,SW2*%
X130040000Y-93500000D02*
X130040000Y-94500000D01*
X130040000Y-94500000D02*
X130540000Y-94000000D01*
X130540000Y-94000000D02*
X130040000Y-93500000D01*
X130740000Y-87590000D02*
X131050000Y-87590000D01*
X130740000Y-96410000D02*
X130740000Y-87590000D01*
X131050000Y-96410000D02*
X130740000Y-96410000D01*
X135260000Y-87590000D02*
X134950000Y-87590000D01*
X135260000Y-87590000D02*
X135260000Y-96410000D01*
X135260000Y-96410000D02*
X134950000Y-96410000D01*
%TO.C,U2*%
X147750000Y-80280000D02*
X147750000Y-100720000D01*
X147750000Y-100720000D02*
X152250000Y-100720000D01*
X149000000Y-80280000D02*
X147750000Y-80280000D01*
X152250000Y-80280000D02*
X151000000Y-80280000D01*
X152250000Y-100720000D02*
X152250000Y-80280000D01*
X144750000Y-80220000D02*
X155250000Y-80220000D01*
X155250000Y-100780000D01*
X144750000Y-100780000D01*
X144750000Y-80220000D01*
X151000000Y-80280000D02*
G75*
G02*
X149000000Y-80280000I-1000000J0D01*
G01*
%TO.C,U5*%
X198152500Y-87352500D02*
X199782500Y-87352500D01*
X198152500Y-88982500D02*
X198152500Y-87352500D01*
D11*
X198512500Y-87712500D02*
X198512500Y-100412500D01*
X198512500Y-100412500D02*
X206132500Y-100412500D01*
X206132500Y-87712500D02*
X198512500Y-87712500D01*
X206132500Y-100412500D02*
X206132500Y-87712500D01*
D12*
%TO.C,R16*%
X190272936Y-91090000D02*
X191727064Y-91090000D01*
X190272936Y-92910000D02*
X191727064Y-92910000D01*
%TO.C,R20*%
X113340000Y-105477064D02*
X113340000Y-104022936D01*
X115160000Y-105477064D02*
X115160000Y-104022936D01*
%TO.C,R4*%
X161000000Y-56040000D02*
X161000000Y-56810000D01*
X161000000Y-64120000D02*
X161000000Y-63350000D01*
X159630000Y-63350000D02*
X162370000Y-63350000D01*
X162370000Y-56810000D01*
X159630000Y-56810000D01*
X159630000Y-63350000D01*
%TO.C,U7*%
X135355000Y-60860000D02*
X135355000Y-71140000D01*
X135355000Y-71140000D02*
X140655000Y-71140000D01*
X137005000Y-60860000D02*
X135355000Y-60860000D01*
X140655000Y-60860000D02*
X139005000Y-60860000D01*
X140655000Y-71140000D02*
X140655000Y-60860000D01*
X139005000Y-60860000D02*
G75*
G02*
X137005000Y-60860000I-1000000J0D01*
G01*
%TO.C,R3*%
X168000000Y-55960000D02*
X168000000Y-56730000D01*
X168000000Y-64040000D02*
X168000000Y-63270000D01*
X166630000Y-63270000D02*
X169370000Y-63270000D01*
X169370000Y-56730000D01*
X166630000Y-56730000D01*
X166630000Y-63270000D01*
%TO.C,R17*%
X190322936Y-84090000D02*
X191777064Y-84090000D01*
X190322936Y-85910000D02*
X191777064Y-85910000D01*
%TO.C,SW1*%
X157000000Y-119250000D02*
X157000000Y-120750000D01*
X158250000Y-123250000D02*
X162750000Y-123250000D01*
X162750000Y-116750000D02*
X158250000Y-116750000D01*
X164000000Y-120750000D02*
X164000000Y-119250000D01*
%TO.C,R14*%
X190272936Y-106090000D02*
X191727064Y-106090000D01*
X190272936Y-107910000D02*
X191727064Y-107910000D01*
%TO.C,R11*%
X169090000Y-110177064D02*
X169090000Y-108722936D01*
X170910000Y-110177064D02*
X170910000Y-108722936D01*
%TO.C,D3*%
X169295000Y-69435000D02*
X166205000Y-69435000D01*
X167750000Y-74985000D02*
G75*
G02*
X166205170Y-69435000I0J2990000D01*
G01*
X169294830Y-69435000D02*
G75*
G02*
X167750000Y-74985000I-1544830J-2560000D01*
G01*
X170250000Y-71995000D02*
G75*
G02*
X165250000Y-71995000I-2500000J0D01*
G01*
X165250000Y-71995000D02*
G75*
G02*
X170250000Y-71995000I2500000J0D01*
G01*
%TO.C,D2*%
X177295000Y-69685000D02*
X174205000Y-69685000D01*
X175750000Y-75235000D02*
G75*
G02*
X174205170Y-69685000I0J2990000D01*
G01*
X177294830Y-69685000D02*
G75*
G02*
X175750000Y-75235000I-1544830J-2560000D01*
G01*
X178250000Y-72245000D02*
G75*
G02*
X173250000Y-72245000I-2500000J0D01*
G01*
X173250000Y-72245000D02*
G75*
G02*
X178250000Y-72245000I2500000J0D01*
G01*
%TO.C,U3*%
X163560000Y-80470000D02*
X163560000Y-100910000D01*
X163560000Y-100910000D02*
X168060000Y-100910000D01*
X164810000Y-80470000D02*
X163560000Y-80470000D01*
X168060000Y-80470000D02*
X166810000Y-80470000D01*
X168060000Y-100910000D02*
X168060000Y-80470000D01*
X160560000Y-80410000D02*
X171060000Y-80410000D01*
X171060000Y-100970000D01*
X160560000Y-100970000D01*
X160560000Y-80410000D01*
X166810000Y-80470000D02*
G75*
G02*
X164810000Y-80470000I-1000000J0D01*
G01*
%TO.C,C5*%
X130090000Y-102351248D02*
X130090000Y-103773752D01*
X131910000Y-102351248D02*
X131910000Y-103773752D01*
%TO.C,C3*%
X147090000Y-110273752D02*
X147090000Y-108851248D01*
X148910000Y-110273752D02*
X148910000Y-108851248D01*
%TO.C,R8*%
X190272936Y-102090000D02*
X191727064Y-102090000D01*
X190272936Y-103910000D02*
X191727064Y-103910000D01*
%TO.C,R13*%
X151590000Y-110227064D02*
X151590000Y-108772936D01*
X153410000Y-110227064D02*
X153410000Y-108772936D01*
%TO.C,R2*%
X175000000Y-55960000D02*
X175000000Y-56730000D01*
X175000000Y-64040000D02*
X175000000Y-63270000D01*
X173630000Y-63270000D02*
X176370000Y-63270000D01*
X176370000Y-56730000D01*
X173630000Y-56730000D01*
X173630000Y-63270000D01*
%TO.C,C4*%
X121788748Y-109090000D02*
X123211252Y-109090000D01*
X121788748Y-110910000D02*
X123211252Y-110910000D01*
%TO.C,U4*%
X178250000Y-80280000D02*
X178250000Y-100720000D01*
X178250000Y-100720000D02*
X182750000Y-100720000D01*
X179500000Y-80280000D02*
X178250000Y-80280000D01*
X182750000Y-80280000D02*
X181500000Y-80280000D01*
X182750000Y-100720000D02*
X182750000Y-80280000D01*
X175250000Y-80220000D02*
X185750000Y-80220000D01*
X185750000Y-100780000D01*
X175250000Y-100780000D01*
X175250000Y-80220000D01*
X181500000Y-80280000D02*
G75*
G02*
X179500000Y-80280000I-1000000J0D01*
G01*
%TO.C,R9*%
X160290000Y-110227064D02*
X160290000Y-108772936D01*
X162110000Y-110227064D02*
X162110000Y-108772936D01*
%TO.C,D1*%
X184545000Y-69710000D02*
X181455000Y-69710000D01*
X183000000Y-75260000D02*
G75*
G02*
X181455170Y-69710000I0J2990000D01*
G01*
X184544830Y-69710000D02*
G75*
G02*
X183000000Y-75260000I-1544830J-2560000D01*
G01*
X185500000Y-72270000D02*
G75*
G02*
X180500000Y-72270000I-2500000J0D01*
G01*
X180500000Y-72270000D02*
G75*
G02*
X185500000Y-72270000I2500000J0D01*
G01*
%TO.C,R18*%
X190272936Y-87590000D02*
X191727064Y-87590000D01*
X190272936Y-89410000D02*
X191727064Y-89410000D01*
%TO.C,R15*%
X191727064Y-80590000D02*
X190272936Y-80590000D01*
X191727064Y-82410000D02*
X190272936Y-82410000D01*
%TO.C,R1*%
X183000000Y-55960000D02*
X183000000Y-56730000D01*
X183000000Y-64040000D02*
X183000000Y-63270000D01*
X181630000Y-63270000D02*
X184370000Y-63270000D01*
X184370000Y-56730000D01*
X181630000Y-56730000D01*
X181630000Y-63270000D01*
%TO.C,C1*%
X127460000Y-62500000D02*
X125920000Y-62500000D01*
X127460000Y-62540000D02*
X125920000Y-62540000D01*
X127460000Y-62580000D02*
X125921000Y-62580000D01*
X127460000Y-62620000D02*
X125923000Y-62620000D01*
X127460000Y-62660000D02*
X125925000Y-62660000D01*
X127460000Y-62700000D02*
X125928000Y-62700000D01*
X127460000Y-62740000D02*
X125931000Y-62740000D01*
X127460000Y-62780000D02*
X125935000Y-62780000D01*
X127460000Y-62820000D02*
X125940000Y-62820000D01*
X127460000Y-62860000D02*
X125945000Y-62860000D01*
X127460000Y-62900000D02*
X125951000Y-62900000D01*
X127460000Y-62940000D02*
X125957000Y-62940000D01*
X127460000Y-62980000D02*
X125964000Y-62980000D01*
X127460000Y-63020000D02*
X125972000Y-63020000D01*
X127460000Y-63060000D02*
X125981000Y-63060000D01*
X127460000Y-63100000D02*
X125990000Y-63100000D01*
X127460000Y-63140000D02*
X125999000Y-63140000D01*
X127460000Y-63180000D02*
X126010000Y-63180000D01*
X127460000Y-63220000D02*
X126021000Y-63220000D01*
X127460000Y-63260000D02*
X126033000Y-63260000D01*
X127460000Y-63300000D02*
X126045000Y-63300000D01*
X127460000Y-63340000D02*
X126058000Y-63340000D01*
X127460000Y-63380000D02*
X126072000Y-63380000D01*
X127460000Y-63420000D02*
X126087000Y-63420000D01*
X127460000Y-63460000D02*
X126102000Y-63460000D01*
X127460000Y-63500000D02*
X126118000Y-63500000D01*
X127460000Y-63540000D02*
X126135000Y-63540000D01*
X127460000Y-63580000D02*
X126153000Y-63580000D01*
X127460000Y-63620000D02*
X126171000Y-63620000D01*
X127460000Y-63660000D02*
X126191000Y-63660000D01*
X127460000Y-63700000D02*
X126211000Y-63700000D01*
X127460000Y-63740000D02*
X126232000Y-63740000D01*
X127460000Y-63780000D02*
X126254000Y-63780000D01*
X127460000Y-63820000D02*
X126277000Y-63820000D01*
X127460000Y-63860000D02*
X126301000Y-63860000D01*
X127460000Y-63900000D02*
X126325000Y-63900000D01*
X127460000Y-63940000D02*
X126351000Y-63940000D01*
X127460000Y-63980000D02*
X126378000Y-63980000D01*
X127460000Y-64020000D02*
X126406000Y-64020000D01*
X127460000Y-64060000D02*
X126435000Y-64060000D01*
X127460000Y-64100000D02*
X126465000Y-64100000D01*
X127460000Y-64140000D02*
X126497000Y-64140000D01*
X127460000Y-64180000D02*
X126530000Y-64180000D01*
X127460000Y-64220000D02*
X126564000Y-64220000D01*
X127460000Y-64260000D02*
X126599000Y-64260000D01*
X127460000Y-64300000D02*
X126636000Y-64300000D01*
X127460000Y-64340000D02*
X126675000Y-64340000D01*
X127460000Y-64380000D02*
X126715000Y-64380000D01*
X127460000Y-64420000D02*
X126757000Y-64420000D01*
X127460000Y-64460000D02*
X126801000Y-64460000D01*
X127460000Y-64500000D02*
X126848000Y-64500000D01*
X128783000Y-65100000D02*
X128217000Y-65100000D01*
X129017000Y-65060000D02*
X127983000Y-65060000D01*
X129177000Y-65020000D02*
X127823000Y-65020000D01*
X129305000Y-64980000D02*
X127695000Y-64980000D01*
X129414000Y-64940000D02*
X127586000Y-64940000D01*
X129511000Y-64900000D02*
X127489000Y-64900000D01*
X129598000Y-64860000D02*
X127402000Y-64860000D01*
X129677000Y-64820000D02*
X127323000Y-64820000D01*
X129751000Y-64780000D02*
X127249000Y-64780000D01*
X129819000Y-64740000D02*
X127181000Y-64740000D01*
X129883000Y-64700000D02*
X127117000Y-64700000D01*
X129943000Y-64660000D02*
X127057000Y-64660000D01*
X129975000Y-59695225D02*
X129975000Y-60195225D01*
X129999000Y-64620000D02*
X127001000Y-64620000D01*
X130053000Y-64580000D02*
X126947000Y-64580000D01*
X130104000Y-64540000D02*
X126896000Y-64540000D01*
X130152000Y-64500000D02*
X129540000Y-64500000D01*
X130199000Y-64460000D02*
X129540000Y-64460000D01*
X130225000Y-59945225D02*
X129725000Y-59945225D01*
X130243000Y-64420000D02*
X129540000Y-64420000D01*
X130285000Y-64380000D02*
X129540000Y-64380000D01*
X130325000Y-64340000D02*
X129540000Y-64340000D01*
X130364000Y-64300000D02*
X129540000Y-64300000D01*
X130401000Y-64260000D02*
X129540000Y-64260000D01*
X130436000Y-64220000D02*
X129540000Y-64220000D01*
X130470000Y-64180000D02*
X129540000Y-64180000D01*
X130503000Y-64140000D02*
X129540000Y-64140000D01*
X130535000Y-64100000D02*
X129540000Y-64100000D01*
X130565000Y-64060000D02*
X129540000Y-64060000D01*
X130594000Y-64020000D02*
X129540000Y-64020000D01*
X130622000Y-63980000D02*
X129540000Y-63980000D01*
X130649000Y-63940000D02*
X129540000Y-63940000D01*
X130675000Y-63900000D02*
X129540000Y-63900000D01*
X130699000Y-63860000D02*
X129540000Y-63860000D01*
X130723000Y-63820000D02*
X129540000Y-63820000D01*
X130746000Y-63780000D02*
X129540000Y-63780000D01*
X130768000Y-63740000D02*
X129540000Y-63740000D01*
X130789000Y-63700000D02*
X129540000Y-63700000D01*
X130809000Y-63660000D02*
X129540000Y-63660000D01*
X130829000Y-63620000D02*
X129540000Y-63620000D01*
X130847000Y-63580000D02*
X129540000Y-63580000D01*
X130865000Y-63540000D02*
X129540000Y-63540000D01*
X130882000Y-63500000D02*
X129540000Y-63500000D01*
X130898000Y-63460000D02*
X129540000Y-63460000D01*
X130913000Y-63420000D02*
X129540000Y-63420000D01*
X130928000Y-63380000D02*
X129540000Y-63380000D01*
X130942000Y-63340000D02*
X129540000Y-63340000D01*
X130955000Y-63300000D02*
X129540000Y-63300000D01*
X130967000Y-63260000D02*
X129540000Y-63260000D01*
X130979000Y-63220000D02*
X129540000Y-63220000D01*
X130990000Y-63180000D02*
X129540000Y-63180000D01*
X131001000Y-63140000D02*
X129540000Y-63140000D01*
X131010000Y-63100000D02*
X129540000Y-63100000D01*
X131019000Y-63060000D02*
X129540000Y-63060000D01*
X131028000Y-63020000D02*
X129540000Y-63020000D01*
X131036000Y-62980000D02*
X129540000Y-62980000D01*
X131043000Y-62940000D02*
X129540000Y-62940000D01*
X131049000Y-62900000D02*
X129540000Y-62900000D01*
X131055000Y-62860000D02*
X129540000Y-62860000D01*
X131060000Y-62820000D02*
X129540000Y-62820000D01*
X131065000Y-62780000D02*
X129540000Y-62780000D01*
X131069000Y-62740000D02*
X129540000Y-62740000D01*
X131072000Y-62700000D02*
X129540000Y-62700000D01*
X131075000Y-62660000D02*
X129540000Y-62660000D01*
X131077000Y-62620000D02*
X129540000Y-62620000D01*
X131079000Y-62580000D02*
X129540000Y-62580000D01*
X131080000Y-62500000D02*
X129540000Y-62500000D01*
X131080000Y-62540000D02*
X129540000Y-62540000D01*
X131120000Y-62500000D02*
G75*
G02*
X125880000Y-62500000I-2620000J0D01*
G01*
X125880000Y-62500000D02*
G75*
G02*
X131120000Y-62500000I2620000J0D01*
G01*
%TO.C,R10*%
X164590000Y-110227064D02*
X164590000Y-108772936D01*
X166410000Y-110227064D02*
X166410000Y-108772936D01*
%TO.C,C2*%
X145960000Y-61500000D02*
X144420000Y-61500000D01*
X145960000Y-61540000D02*
X144420000Y-61540000D01*
X145960000Y-61580000D02*
X144421000Y-61580000D01*
X145960000Y-61620000D02*
X144423000Y-61620000D01*
X145960000Y-61660000D02*
X144425000Y-61660000D01*
X145960000Y-61700000D02*
X144428000Y-61700000D01*
X145960000Y-61740000D02*
X144431000Y-61740000D01*
X145960000Y-61780000D02*
X144435000Y-61780000D01*
X145960000Y-61820000D02*
X144440000Y-61820000D01*
X145960000Y-61860000D02*
X144445000Y-61860000D01*
X145960000Y-61900000D02*
X144451000Y-61900000D01*
X145960000Y-61940000D02*
X144457000Y-61940000D01*
X145960000Y-61980000D02*
X144464000Y-61980000D01*
X145960000Y-62020000D02*
X144472000Y-62020000D01*
X145960000Y-62060000D02*
X144481000Y-62060000D01*
X145960000Y-62100000D02*
X144490000Y-62100000D01*
X145960000Y-62140000D02*
X144499000Y-62140000D01*
X145960000Y-62180000D02*
X144510000Y-62180000D01*
X145960000Y-62220000D02*
X144521000Y-62220000D01*
X145960000Y-62260000D02*
X144533000Y-62260000D01*
X145960000Y-62300000D02*
X144545000Y-62300000D01*
X145960000Y-62340000D02*
X144558000Y-62340000D01*
X145960000Y-62380000D02*
X144572000Y-62380000D01*
X145960000Y-62420000D02*
X144587000Y-62420000D01*
X145960000Y-62460000D02*
X144602000Y-62460000D01*
X145960000Y-62500000D02*
X144618000Y-62500000D01*
X145960000Y-62540000D02*
X144635000Y-62540000D01*
X145960000Y-62580000D02*
X144653000Y-62580000D01*
X145960000Y-62620000D02*
X144671000Y-62620000D01*
X145960000Y-62660000D02*
X144691000Y-62660000D01*
X145960000Y-62700000D02*
X144711000Y-62700000D01*
X145960000Y-62740000D02*
X144732000Y-62740000D01*
X145960000Y-62780000D02*
X144754000Y-62780000D01*
X145960000Y-62820000D02*
X144777000Y-62820000D01*
X145960000Y-62860000D02*
X144801000Y-62860000D01*
X145960000Y-62900000D02*
X144825000Y-62900000D01*
X145960000Y-62940000D02*
X144851000Y-62940000D01*
X145960000Y-62980000D02*
X144878000Y-62980000D01*
X145960000Y-63020000D02*
X144906000Y-63020000D01*
X145960000Y-63060000D02*
X144935000Y-63060000D01*
X145960000Y-63100000D02*
X144965000Y-63100000D01*
X145960000Y-63140000D02*
X144997000Y-63140000D01*
X145960000Y-63180000D02*
X145030000Y-63180000D01*
X145960000Y-63220000D02*
X145064000Y-63220000D01*
X145960000Y-63260000D02*
X145099000Y-63260000D01*
X145960000Y-63300000D02*
X145136000Y-63300000D01*
X145960000Y-63340000D02*
X145175000Y-63340000D01*
X145960000Y-63380000D02*
X145215000Y-63380000D01*
X145960000Y-63420000D02*
X145257000Y-63420000D01*
X145960000Y-63460000D02*
X145301000Y-63460000D01*
X145960000Y-63500000D02*
X145348000Y-63500000D01*
X147283000Y-64100000D02*
X146717000Y-64100000D01*
X147517000Y-64060000D02*
X146483000Y-64060000D01*
X147677000Y-64020000D02*
X146323000Y-64020000D01*
X147805000Y-63980000D02*
X146195000Y-63980000D01*
X147914000Y-63940000D02*
X146086000Y-63940000D01*
X148011000Y-63900000D02*
X145989000Y-63900000D01*
X148098000Y-63860000D02*
X145902000Y-63860000D01*
X148177000Y-63820000D02*
X145823000Y-63820000D01*
X148251000Y-63780000D02*
X145749000Y-63780000D01*
X148319000Y-63740000D02*
X145681000Y-63740000D01*
X148383000Y-63700000D02*
X145617000Y-63700000D01*
X148443000Y-63660000D02*
X145557000Y-63660000D01*
X148475000Y-58695225D02*
X148475000Y-59195225D01*
X148499000Y-63620000D02*
X145501000Y-63620000D01*
X148553000Y-63580000D02*
X145447000Y-63580000D01*
X148604000Y-63540000D02*
X145396000Y-63540000D01*
X148652000Y-63500000D02*
X148040000Y-63500000D01*
X148699000Y-63460000D02*
X148040000Y-63460000D01*
X148725000Y-58945225D02*
X148225000Y-58945225D01*
X148743000Y-63420000D02*
X148040000Y-63420000D01*
X148785000Y-63380000D02*
X148040000Y-63380000D01*
X148825000Y-63340000D02*
X148040000Y-63340000D01*
X148864000Y-63300000D02*
X148040000Y-63300000D01*
X148901000Y-63260000D02*
X148040000Y-63260000D01*
X148936000Y-63220000D02*
X148040000Y-63220000D01*
X148970000Y-63180000D02*
X148040000Y-63180000D01*
X149003000Y-63140000D02*
X148040000Y-63140000D01*
X149035000Y-63100000D02*
X148040000Y-63100000D01*
X149065000Y-63060000D02*
X148040000Y-63060000D01*
X149094000Y-63020000D02*
X148040000Y-63020000D01*
X149122000Y-62980000D02*
X148040000Y-62980000D01*
X149149000Y-62940000D02*
X148040000Y-62940000D01*
X149175000Y-62900000D02*
X148040000Y-62900000D01*
X149199000Y-62860000D02*
X148040000Y-62860000D01*
X149223000Y-62820000D02*
X148040000Y-62820000D01*
X149246000Y-62780000D02*
X148040000Y-62780000D01*
X149268000Y-62740000D02*
X148040000Y-62740000D01*
X149289000Y-62700000D02*
X148040000Y-62700000D01*
X149309000Y-62660000D02*
X148040000Y-62660000D01*
X149329000Y-62620000D02*
X148040000Y-62620000D01*
X149347000Y-62580000D02*
X148040000Y-62580000D01*
X149365000Y-62540000D02*
X148040000Y-62540000D01*
X149382000Y-62500000D02*
X148040000Y-62500000D01*
X149398000Y-62460000D02*
X148040000Y-62460000D01*
X149413000Y-62420000D02*
X148040000Y-62420000D01*
X149428000Y-62380000D02*
X148040000Y-62380000D01*
X149442000Y-62340000D02*
X148040000Y-62340000D01*
X149455000Y-62300000D02*
X148040000Y-62300000D01*
X149467000Y-62260000D02*
X148040000Y-62260000D01*
X149479000Y-62220000D02*
X148040000Y-62220000D01*
X149490000Y-62180000D02*
X148040000Y-62180000D01*
X149501000Y-62140000D02*
X148040000Y-62140000D01*
X149510000Y-62100000D02*
X148040000Y-62100000D01*
X149519000Y-62060000D02*
X148040000Y-62060000D01*
X149528000Y-62020000D02*
X148040000Y-62020000D01*
X149536000Y-61980000D02*
X148040000Y-61980000D01*
X149543000Y-61940000D02*
X148040000Y-61940000D01*
X149549000Y-61900000D02*
X148040000Y-61900000D01*
X149555000Y-61860000D02*
X148040000Y-61860000D01*
X149560000Y-61820000D02*
X148040000Y-61820000D01*
X149565000Y-61780000D02*
X148040000Y-61780000D01*
X149569000Y-61740000D02*
X148040000Y-61740000D01*
X149572000Y-61700000D02*
X148040000Y-61700000D01*
X149575000Y-61660000D02*
X148040000Y-61660000D01*
X149577000Y-61620000D02*
X148040000Y-61620000D01*
X149579000Y-61580000D02*
X148040000Y-61580000D01*
X149580000Y-61500000D02*
X148040000Y-61500000D01*
X149580000Y-61540000D02*
X148040000Y-61540000D01*
X149620000Y-61500000D02*
G75*
G02*
X144380000Y-61500000I-2620000J0D01*
G01*
X144380000Y-61500000D02*
G75*
G02*
X149620000Y-61500000I2620000J0D01*
G01*
%TO.C,D5*%
X160545000Y-69710000D02*
X157455000Y-69710000D01*
X159000000Y-75260000D02*
G75*
G02*
X157455170Y-69710000I0J2990000D01*
G01*
X160544830Y-69710000D02*
G75*
G02*
X159000000Y-75260000I-1544830J-2560000D01*
G01*
X161500000Y-72270000D02*
G75*
G02*
X156500000Y-72270000I-2500000J0D01*
G01*
X156500000Y-72270000D02*
G75*
G02*
X161500000Y-72270000I2500000J0D01*
G01*
%TO.C,R12*%
X173090000Y-110177064D02*
X173090000Y-108722936D01*
X174910000Y-110177064D02*
X174910000Y-108722936D01*
%TO.C,J1*%
X114880000Y-72880000D02*
X125620000Y-72880000D01*
X114880000Y-83120000D02*
X114880000Y-72880000D01*
X118500000Y-83120000D02*
X118500000Y-72880000D01*
X119500000Y-83120000D02*
X119500000Y-72880000D01*
X123500000Y-83120000D02*
X123500000Y-72880000D01*
X125620000Y-72880000D02*
X125620000Y-80200000D01*
X125620000Y-80800000D02*
X125620000Y-83120000D01*
X125620000Y-83120000D02*
X114880000Y-83120000D01*
X126230000Y-80940000D02*
X125620000Y-80500000D01*
X126230000Y-80060000D01*
X126230000Y-80940000D01*
G36*
X126230000Y-80940000D02*
G01*
X125620000Y-80500000D01*
X126230000Y-80060000D01*
X126230000Y-80940000D01*
G37*
%TO.C,R6*%
X190222936Y-98590000D02*
X191677064Y-98590000D01*
X190222936Y-100410000D02*
X191677064Y-100410000D01*
%TD*%
M02*
